  0
SECTION
  2
HEADER
  9
$ANGBASE
  50
0.0
  9
$ANGDIR
  70
1
  9
$MEASUREMENT
  70
1
  9
$INSUNITS
  70
4
  0
ENDSEC
  0
SECTION
  2
TABLES
  0
TABLE
  2
LTYPE
  70
4
  0
LTYPE
  5
40F
  2
CONTINUOUS
  70
0
  3
Solid line
  72
65
  73
0
  40
0.0
  0
LTYPE
  5
410
  2
DASHDOT
 70
0
  3
Dash Dot ____ _ ____ _
 72
65
 73
4
 40
2.0
 49
1.25
 49
-0.25
 49
0.25
 49
-0.25
  0
LTYPE
  5
411
  2
DASHED
 70
0
  3
Dashed __ __ __ __ __
 72
65
 73
2
 40
0.75
 49
0.5
 49
-0.25
  0
LTYPE
  5
43B
  2
DOTTED
 70
0
  3
Dotted .  .  .  .
 72
65
 73
2
 40
0.2
 49
0.0
 49
-0.2
  0
ENDTAB
  0
TABLE
  2
STYLE
  70
4
  0
STYLE
  2
KICAD
  70
0
  40
0
  41
1
  42
1
  50
0
  71
0
  3
isocp.shx
  0
STYLE
  2
KICADB
  70
0
  40
0
  41
1
  42
1
  50
0
  71
0
  3
isocp.shx
  0
STYLE
  2
KICADI
  70
0
  40
0
  41
1
  42
1
  50
15
  71
0
  3
isocp.shx
  0
STYLE
  2
KICADBI
  70
0
  40
0
  41
1
  42
1
  50
15
  71
0
  3
isocp.shx
  0
ENDTAB
  0
TABLE
  2
LAYER
  70
1
  0
LAYER
  2
BLACK
  70
0
  62
250
  6
CONTINUOUS
  0
ENDTAB
  0
ENDSEC
  0
SECTION
  2
ENTITIES
0
LINE
8
BLACK
6
CONTINUOUS
10
160.
20
-127.9499999999999886
11
158.5
21
-127.9499999999999886
0
LINE
8
BLACK
6
CONTINUOUS
10
158.5
20
-127.9499999999999886
11
158.5
21
-124.5499999999999972
0
LINE
8
BLACK
6
CONTINUOUS
10
158.5
20
-124.5499999999999972
11
160.
21
-124.5499999999999972
0
LINE
8
BLACK
6
CONTINUOUS
10
160.
20
-124.5499999999999972
11
160.
21
-127.9499999999999886
0
LINE
8
BLACK
6
CONTINUOUS
10
166.6999999999999886
20
-127.9499999999999886
11
165.1999999999999886
21
-127.9499999999999886
0
LINE
8
BLACK
6
CONTINUOUS
10
165.1999999999999886
20
-127.9499999999999886
11
165.1999999999999886
21
-124.5499999999999972
0
LINE
8
BLACK
6
CONTINUOUS
10
165.1999999999999886
20
-124.5499999999999972
11
166.6999999999999886
21
-124.5499999999999972
0
LINE
8
BLACK
6
CONTINUOUS
10
166.6999999999999886
20
-124.5499999999999972
11
166.6999999999999886
21
-127.9499999999999886
0
LINE
8
BLACK
6
CONTINUOUS
10
103.5999999999999943
20
-125.0999999999999943
11
101.3999999999999915
21
-125.0999999999999943
0
LINE
8
BLACK
6
CONTINUOUS
10
101.3999999999999915
20
-125.0999999999999943
11
101.3999999999999915
21
-122.8999999999999915
0
LINE
8
BLACK
6
CONTINUOUS
10
101.3999999999999915
20
-122.8999999999999915
11
103.5999999999999943
21
-122.8999999999999915
0
LINE
8
BLACK
6
CONTINUOUS
10
103.5999999999999943
20
-122.8999999999999915
11
103.5999999999999943
21
-125.0999999999999943
0
LINE
8
BLACK
6
CONTINUOUS
10
105.3999999999999915
20
-125.0999999999999943
11
104.1499999999999915
21
-125.0999999999999943
0
LINE
8
BLACK
6
CONTINUOUS
10
104.1499999999999915
20
-125.0999999999999943
11
104.1499999999999915
21
-122.8999999999999915
0
LINE
8
BLACK
6
CONTINUOUS
10
104.1499999999999915
20
-122.8999999999999915
11
105.3999999999999915
21
-122.8999999999999915
0
LINE
8
BLACK
6
CONTINUOUS
10
105.3999999999999915
20
-122.8999999999999915
11
105.3999999999999915
21
-125.0999999999999943
0
LINE
8
BLACK
6
CONTINUOUS
10
114.0999999999999943
20
-125.0999999999999943
11
111.8999999999999915
21
-125.0999999999999943
0
LINE
8
BLACK
6
CONTINUOUS
10
111.8999999999999915
20
-125.0999999999999943
11
111.8999999999999915
21
-122.8999999999999915
0
LINE
8
BLACK
6
CONTINUOUS
10
111.8999999999999915
20
-122.8999999999999915
11
114.0999999999999943
21
-122.8999999999999915
0
LINE
8
BLACK
6
CONTINUOUS
10
114.0999999999999943
20
-122.8999999999999915
11
114.0999999999999943
21
-125.0999999999999943
0
LINE
8
BLACK
6
CONTINUOUS
10
115.8999999999999915
20
-125.0999999999999943
11
114.6499999999999915
21
-125.0999999999999943
0
LINE
8
BLACK
6
CONTINUOUS
10
114.6499999999999915
20
-125.0999999999999943
11
114.6499999999999915
21
-122.8999999999999915
0
LINE
8
BLACK
6
CONTINUOUS
10
114.6499999999999915
20
-122.8999999999999915
11
115.8999999999999915
21
-122.8999999999999915
0
LINE
8
BLACK
6
CONTINUOUS
10
115.8999999999999915
20
-122.8999999999999915
11
115.8999999999999915
21
-125.0999999999999943
0
LINE
8
BLACK
6
CONTINUOUS
10
128.5
20
-124.5999999999999943
11
126.2999999999999972
21
-124.5999999999999943
0
LINE
8
BLACK
6
CONTINUOUS
10
126.2999999999999972
20
-124.5999999999999943
11
126.2999999999999972
21
-122.3999999999999915
0
LINE
8
BLACK
6
CONTINUOUS
10
126.2999999999999972
20
-122.3999999999999915
11
128.5
21
-122.3999999999999915
0
LINE
8
BLACK
6
CONTINUOUS
10
128.5
20
-122.3999999999999915
11
128.5
21
-124.5999999999999943
0
LINE
8
BLACK
6
CONTINUOUS
10
130.2999999999999829
20
-124.5999999999999943
11
129.0499999999999829
21
-124.5999999999999943
0
LINE
8
BLACK
6
CONTINUOUS
10
129.0499999999999829
20
-124.5999999999999943
11
129.0499999999999829
21
-122.3999999999999915
0
LINE
8
BLACK
6
CONTINUOUS
10
129.0499999999999829
20
-122.3999999999999915
11
130.2999999999999829
21
-122.3999999999999915
0
LINE
8
BLACK
6
CONTINUOUS
10
130.2999999999999829
20
-122.3999999999999915
11
130.2999999999999829
21
-124.5999999999999943
0
LINE
8
BLACK
6
CONTINUOUS
10
142.2999999999999829
20
-124.5999999999999943
11
140.0999999999999943
21
-124.5999999999999943
0
LINE
8
BLACK
6
CONTINUOUS
10
140.0999999999999943
20
-124.5999999999999943
11
140.0999999999999943
21
-122.3999999999999915
0
LINE
8
BLACK
6
CONTINUOUS
10
140.0999999999999943
20
-122.3999999999999915
11
142.2999999999999829
21
-122.3999999999999915
0
LINE
8
BLACK
6
CONTINUOUS
10
142.2999999999999829
20
-122.3999999999999915
11
142.2999999999999829
21
-124.5999999999999943
0
LINE
8
BLACK
6
CONTINUOUS
10
144.0999999999999943
20
-124.5999999999999943
11
142.8499999999999943
21
-124.5999999999999943
0
LINE
8
BLACK
6
CONTINUOUS
10
142.8499999999999943
20
-124.5999999999999943
11
142.8499999999999943
21
-122.3999999999999915
0
LINE
8
BLACK
6
CONTINUOUS
10
142.8499999999999943
20
-122.3999999999999915
11
144.0999999999999943
21
-122.3999999999999915
0
LINE
8
BLACK
6
CONTINUOUS
10
144.0999999999999943
20
-122.3999999999999915
11
144.0999999999999943
21
-124.5999999999999943
0
LINE
8
BLACK
6
CONTINUOUS
10
154.1999999999999886
20
-124.5999999999999943
11
152.
21
-124.5999999999999943
0
LINE
8
BLACK
6
CONTINUOUS
10
152.
20
-124.5999999999999943
11
152.
21
-122.3999999999999915
0
LINE
8
BLACK
6
CONTINUOUS
10
152.
20
-122.3999999999999915
11
154.1999999999999886
21
-122.3999999999999915
0
LINE
8
BLACK
6
CONTINUOUS
10
154.1999999999999886
20
-122.3999999999999915
11
154.1999999999999886
21
-124.5999999999999943
0
LINE
8
BLACK
6
CONTINUOUS
10
156.
20
-124.5999999999999943
11
154.75
21
-124.5999999999999943
0
LINE
8
BLACK
6
CONTINUOUS
10
154.75
20
-124.5999999999999943
11
154.75
21
-122.3999999999999915
0
LINE
8
BLACK
6
CONTINUOUS
10
154.75
20
-122.3999999999999915
11
156.
21
-122.3999999999999915
0
LINE
8
BLACK
6
CONTINUOUS
10
156.
20
-122.3999999999999915
11
156.
21
-124.5999999999999943
0
LINE
8
BLACK
6
CONTINUOUS
10
183.6999999999999886
20
-124.5999999999999943
11
181.5
21
-124.5999999999999943
0
LINE
8
BLACK
6
CONTINUOUS
10
181.5
20
-124.5999999999999943
11
181.5
21
-122.3999999999999915
0
LINE
8
BLACK
6
CONTINUOUS
10
181.5
20
-122.3999999999999915
11
183.6999999999999886
21
-122.3999999999999915
0
LINE
8
BLACK
6
CONTINUOUS
10
183.6999999999999886
20
-122.3999999999999915
11
183.6999999999999886
21
-124.5999999999999943
0
LINE
8
BLACK
6
CONTINUOUS
10
185.5
20
-124.5999999999999943
11
184.25
21
-124.5999999999999943
0
LINE
8
BLACK
6
CONTINUOUS
10
184.25
20
-124.5999999999999943
11
184.25
21
-122.3999999999999915
0
LINE
8
BLACK
6
CONTINUOUS
10
184.25
20
-122.3999999999999915
11
185.5
21
-122.3999999999999915
0
LINE
8
BLACK
6
CONTINUOUS
10
185.5
20
-122.3999999999999915
11
185.5
21
-124.5999999999999943
0
LINE
8
BLACK
6
CONTINUOUS
10
172.6999999999999886
20
-124.3499999999999943
11
170.5
21
-124.3499999999999943
0
LINE
8
BLACK
6
CONTINUOUS
10
170.5
20
-124.3499999999999943
11
170.5
21
-122.1499999999999915
0
LINE
8
BLACK
6
CONTINUOUS
10
170.5
20
-122.1499999999999915
11
172.6999999999999886
21
-122.1499999999999915
0
LINE
8
BLACK
6
CONTINUOUS
10
172.6999999999999886
20
-122.1499999999999915
11
172.6999999999999886
21
-124.3499999999999943
0
LINE
8
BLACK
6
CONTINUOUS
10
174.5
20
-124.3499999999999943
11
173.25
21
-124.3499999999999943
0
LINE
8
BLACK
6
CONTINUOUS
10
173.25
20
-124.3499999999999943
11
173.25
21
-122.1499999999999915
0
LINE
8
BLACK
6
CONTINUOUS
10
173.25
20
-122.1499999999999915
11
174.5
21
-122.1499999999999915
0
LINE
8
BLACK
6
CONTINUOUS
10
174.5
20
-122.1499999999999915
11
174.5
21
-124.3499999999999943
0
LINE
8
BLACK
6
CONTINUOUS
10
162.0999999999999943
20
-122.25
11
161.0999999999999943
21
-122.25
0
LINE
8
BLACK
6
CONTINUOUS
10
161.0999999999999943
20
-122.25
11
161.0999999999999943
21
-118.75
0
LINE
8
BLACK
6
CONTINUOUS
10
161.0999999999999943
20
-118.75
11
162.0999999999999943
21
-118.75
0
LINE
8
BLACK
6
CONTINUOUS
10
162.0999999999999943
20
-118.75
11
162.0999999999999943
21
-122.25
0
LINE
8
BLACK
6
CONTINUOUS
10
164.0999999999999943
20
-122.25
11
163.0999999999999943
21
-122.25
0
LINE
8
BLACK
6
CONTINUOUS
10
163.0999999999999943
20
-122.25
11
163.0999999999999943
21
-118.75
0
LINE
8
BLACK
6
CONTINUOUS
10
163.0999999999999943
20
-118.75
11
164.0999999999999943
21
-118.75
0
LINE
8
BLACK
6
CONTINUOUS
10
164.0999999999999943
20
-118.75
11
164.0999999999999943
21
-122.25
0
LINE
8
BLACK
6
CONTINUOUS
10
98.9081709999999958
20
-115.6440300000000008
11
98.9892770000000013
21
-115.6982229999999987
0
LINE
8
BLACK
6
CONTINUOUS
10
98.9892770000000013
20
-115.6982229999999987
11
99.0434699999999992
21
-115.7793289999999899
0
LINE
8
BLACK
6
CONTINUOUS
10
99.0434699999999992
20
-115.7793289999999899
11
99.0625
21
-115.875
0
LINE
8
BLACK
6
CONTINUOUS
10
99.0625
20
-115.875
11
99.0625
21
-117.125
0
LINE
8
BLACK
6
CONTINUOUS
10
99.0625
20
-117.125
11
99.0434699999999992
21
-117.2206709999999958
0
LINE
8
BLACK
6
CONTINUOUS
10
99.0434699999999992
20
-117.2206709999999958
11
98.9892770000000013
21
-117.3017770000000013
0
LINE
8
BLACK
6
CONTINUOUS
10
98.9892770000000013
20
-117.3017770000000013
11
98.9081709999999958
21
-117.3559699999999992
0
LINE
8
BLACK
6
CONTINUOUS
10
98.9081709999999958
20
-117.3559699999999992
11
98.8125
21
-117.375
0
LINE
8
BLACK
6
CONTINUOUS
10
98.8125
20
-117.375
11
98.1875
21
-117.375
0
LINE
8
BLACK
6
CONTINUOUS
10
98.1875
20
-117.375
11
98.0918289999999899
21
-117.3559699999999992
0
LINE
8
BLACK
6
CONTINUOUS
10
98.0918289999999899
20
-117.3559699999999992
11
98.0107229999999987
21
-117.3017770000000013
0
LINE
8
BLACK
6
CONTINUOUS
10
98.0107229999999987
20
-117.3017770000000013
11
97.9565300000000008
21
-117.2206709999999958
0
LINE
8
BLACK
6
CONTINUOUS
10
97.9565300000000008
20
-117.2206709999999958
11
97.9375
21
-117.125
0
LINE
8
BLACK
6
CONTINUOUS
10
97.9375
20
-117.125
11
97.9375
21
-115.875
0
LINE
8
BLACK
6
CONTINUOUS
10
97.9375
20
-115.875
11
97.9565300000000008
21
-115.7793289999999899
0
LINE
8
BLACK
6
CONTINUOUS
10
97.9565300000000008
20
-115.7793289999999899
11
98.0107229999999987
21
-115.6982229999999987
0
LINE
8
BLACK
6
CONTINUOUS
10
98.0107229999999987
20
-115.6982229999999987
11
98.0918289999999899
21
-115.6440300000000008
0
LINE
8
BLACK
6
CONTINUOUS
10
98.0918289999999899
20
-115.6440300000000008
11
98.1875
21
-115.625
0
LINE
8
BLACK
6
CONTINUOUS
10
98.1875
20
-115.625
11
98.8125
21
-115.625
0
LINE
8
BLACK
6
CONTINUOUS
10
98.8125
20
-115.625
11
98.9081709999999958
21
-115.6440300000000008
0
LINE
8
BLACK
6
CONTINUOUS
10
101.833170999999993
20
-115.6440300000000008
11
101.9142769999999985
21
-115.6982229999999987
0
LINE
8
BLACK
6
CONTINUOUS
10
101.9142769999999985
20
-115.6982229999999987
11
101.9684699999999964
21
-115.7793289999999899
0
LINE
8
BLACK
6
CONTINUOUS
10
101.9684699999999964
20
-115.7793289999999899
11
101.9874999999999972
21
-115.875
0
LINE
8
BLACK
6
CONTINUOUS
10
101.9874999999999972
20
-115.875
11
101.9874999999999972
21
-117.125
0
LINE
8
BLACK
6
CONTINUOUS
10
101.9874999999999972
20
-117.125
11
101.9684699999999964
21
-117.2206709999999958
0
LINE
8
BLACK
6
CONTINUOUS
10
101.9684699999999964
20
-117.2206709999999958
11
101.9142769999999985
21
-117.3017770000000013
0
LINE
8
BLACK
6
CONTINUOUS
10
101.9142769999999985
20
-117.3017770000000013
11
101.833170999999993
21
-117.3559699999999992
0
LINE
8
BLACK
6
CONTINUOUS
10
101.833170999999993
20
-117.3559699999999992
11
101.7374999999999972
21
-117.375
0
LINE
8
BLACK
6
CONTINUOUS
10
101.7374999999999972
20
-117.375
11
101.1124999999999972
21
-117.375
0
LINE
8
BLACK
6
CONTINUOUS
10
101.1124999999999972
20
-117.375
11
101.0168290000000013
21
-117.3559699999999992
0
LINE
8
BLACK
6
CONTINUOUS
10
101.0168290000000013
20
-117.3559699999999992
11
100.9357229999999959
21
-117.3017770000000013
0
LINE
8
BLACK
6
CONTINUOUS
10
100.9357229999999959
20
-117.3017770000000013
11
100.8815299999999979
21
-117.2206709999999958
0
LINE
8
BLACK
6
CONTINUOUS
10
100.8815299999999979
20
-117.2206709999999958
11
100.8624999999999972
21
-117.125
0
LINE
8
BLACK
6
CONTINUOUS
10
100.8624999999999972
20
-117.125
11
100.8624999999999972
21
-115.875
0
LINE
8
BLACK
6
CONTINUOUS
10
100.8624999999999972
20
-115.875
11
100.8815299999999979
21
-115.7793289999999899
0
LINE
8
BLACK
6
CONTINUOUS
10
100.8815299999999979
20
-115.7793289999999899
11
100.9357229999999959
21
-115.6982229999999987
0
LINE
8
BLACK
6
CONTINUOUS
10
100.9357229999999959
20
-115.6982229999999987
11
101.0168290000000013
21
-115.6440300000000008
0
LINE
8
BLACK
6
CONTINUOUS
10
101.0168290000000013
20
-115.6440300000000008
11
101.1124999999999972
21
-115.625
0
LINE
8
BLACK
6
CONTINUOUS
10
101.1124999999999972
20
-115.625
11
101.7374999999999972
21
-115.625
0
LINE
8
BLACK
6
CONTINUOUS
10
101.7374999999999972
20
-115.625
11
101.833170999999993
21
-115.6440300000000008
0
LINE
8
BLACK
6
CONTINUOUS
10
128.5999999999999943
20
-110.3999999999999915
11
126.3999999999999915
21
-110.3999999999999915
0
LINE
8
BLACK
6
CONTINUOUS
10
126.3999999999999915
20
-110.3999999999999915
11
126.3999999999999915
21
-108.1999999999999886
0
LINE
8
BLACK
6
CONTINUOUS
10
126.3999999999999915
20
-108.1999999999999886
11
128.5999999999999943
21
-108.1999999999999886
0
LINE
8
BLACK
6
CONTINUOUS
10
128.5999999999999943
20
-108.1999999999999886
11
128.5999999999999943
21
-110.3999999999999915
0
LINE
8
BLACK
6
CONTINUOUS
10
130.4000000000000057
20
-110.3999999999999915
11
129.1500000000000057
21
-110.3999999999999915
0
LINE
8
BLACK
6
CONTINUOUS
10
129.1500000000000057
20
-110.3999999999999915
11
129.1500000000000057
21
-108.1999999999999886
0
LINE
8
BLACK
6
CONTINUOUS
10
129.1500000000000057
20
-108.1999999999999886
11
130.4000000000000057
21
-108.1999999999999886
0
LINE
8
BLACK
6
CONTINUOUS
10
130.4000000000000057
20
-108.1999999999999886
11
130.4000000000000057
21
-110.3999999999999915
0
LINE
8
BLACK
6
CONTINUOUS
10
142.5
20
-110.3999999999999915
11
140.2999999999999829
21
-110.3999999999999915
0
LINE
8
BLACK
6
CONTINUOUS
10
140.2999999999999829
20
-110.3999999999999915
11
140.2999999999999829
21
-108.1999999999999886
0
LINE
8
BLACK
6
CONTINUOUS
10
140.2999999999999829
20
-108.1999999999999886
11
142.5
21
-108.1999999999999886
0
LINE
8
BLACK
6
CONTINUOUS
10
142.5
20
-108.1999999999999886
11
142.5
21
-110.3999999999999915
0
LINE
8
BLACK
6
CONTINUOUS
10
144.2999999999999829
20
-110.3999999999999915
11
143.0499999999999829
21
-110.3999999999999915
0
LINE
8
BLACK
6
CONTINUOUS
10
143.0499999999999829
20
-110.3999999999999915
11
143.0499999999999829
21
-108.1999999999999886
0
LINE
8
BLACK
6
CONTINUOUS
10
143.0499999999999829
20
-108.1999999999999886
11
144.2999999999999829
21
-108.1999999999999886
0
LINE
8
BLACK
6
CONTINUOUS
10
144.2999999999999829
20
-108.1999999999999886
11
144.2999999999999829
21
-110.3999999999999915
0
LINE
8
BLACK
6
CONTINUOUS
10
170.2999999999999829
20
-110.3999999999999915
11
168.0999999999999943
21
-110.3999999999999915
0
LINE
8
BLACK
6
CONTINUOUS
10
168.0999999999999943
20
-110.3999999999999915
11
168.0999999999999943
21
-108.1999999999999886
0
LINE
8
BLACK
6
CONTINUOUS
10
168.0999999999999943
20
-108.1999999999999886
11
170.2999999999999829
21
-108.1999999999999886
0
LINE
8
BLACK
6
CONTINUOUS
10
170.2999999999999829
20
-108.1999999999999886
11
170.2999999999999829
21
-110.3999999999999915
0
LINE
8
BLACK
6
CONTINUOUS
10
172.0999999999999943
20
-110.3999999999999915
11
170.8499999999999943
21
-110.3999999999999915
0
LINE
8
BLACK
6
CONTINUOUS
10
170.8499999999999943
20
-110.3999999999999915
11
170.8499999999999943
21
-108.1999999999999886
0
LINE
8
BLACK
6
CONTINUOUS
10
170.8499999999999943
20
-108.1999999999999886
11
172.0999999999999943
21
-108.1999999999999886
0
LINE
8
BLACK
6
CONTINUOUS
10
172.0999999999999943
20
-108.1999999999999886
11
172.0999999999999943
21
-110.3999999999999915
0
LINE
8
BLACK
6
CONTINUOUS
10
185.2999999999999829
20
-110.3999999999999915
11
183.0999999999999943
21
-110.3999999999999915
0
LINE
8
BLACK
6
CONTINUOUS
10
183.0999999999999943
20
-110.3999999999999915
11
183.0999999999999943
21
-108.1999999999999886
0
LINE
8
BLACK
6
CONTINUOUS
10
183.0999999999999943
20
-108.1999999999999886
11
185.2999999999999829
21
-108.1999999999999886
0
LINE
8
BLACK
6
CONTINUOUS
10
185.2999999999999829
20
-108.1999999999999886
11
185.2999999999999829
21
-110.3999999999999915
0
LINE
8
BLACK
6
CONTINUOUS
10
187.0999999999999943
20
-110.3999999999999915
11
185.8499999999999943
21
-110.3999999999999915
0
LINE
8
BLACK
6
CONTINUOUS
10
185.8499999999999943
20
-110.3999999999999915
11
185.8499999999999943
21
-108.1999999999999886
0
LINE
8
BLACK
6
CONTINUOUS
10
185.8499999999999943
20
-108.1999999999999886
11
187.0999999999999943
21
-108.1999999999999886
0
LINE
8
BLACK
6
CONTINUOUS
10
187.0999999999999943
20
-108.1999999999999886
11
187.0999999999999943
21
-110.3999999999999915
0
LINE
8
BLACK
6
CONTINUOUS
10
103.5999999999999943
20
-110.2666669999999982
11
101.3999999999999915
21
-110.2666669999999982
0
LINE
8
BLACK
6
CONTINUOUS
10
101.3999999999999915
20
-110.2666669999999982
11
101.3999999999999915
21
-108.0666669999999954
0
LINE
8
BLACK
6
CONTINUOUS
10
101.3999999999999915
20
-108.0666669999999954
11
103.5999999999999943
21
-108.0666669999999954
0
LINE
8
BLACK
6
CONTINUOUS
10
103.5999999999999943
20
-108.0666669999999954
11
103.5999999999999943
21
-110.2666669999999982
0
LINE
8
BLACK
6
CONTINUOUS
10
105.3999999999999915
20
-110.2666669999999982
11
104.1499999999999915
21
-110.2666669999999982
0
LINE
8
BLACK
6
CONTINUOUS
10
104.1499999999999915
20
-110.2666669999999982
11
104.1499999999999915
21
-108.0666669999999954
0
LINE
8
BLACK
6
CONTINUOUS
10
104.1499999999999915
20
-108.0666669999999954
11
105.3999999999999915
21
-108.0666669999999954
0
LINE
8
BLACK
6
CONTINUOUS
10
105.3999999999999915
20
-108.0666669999999954
11
105.3999999999999915
21
-110.2666669999999982
0
LINE
8
BLACK
6
CONTINUOUS
10
114.6999999999999886
20
-110.0999999999999943
11
112.5
21
-110.0999999999999943
0
LINE
8
BLACK
6
CONTINUOUS
10
112.5
20
-110.0999999999999943
11
112.5
21
-107.8999999999999915
0
LINE
8
BLACK
6
CONTINUOUS
10
112.5
20
-107.8999999999999915
11
114.6999999999999886
21
-107.8999999999999915
0
LINE
8
BLACK
6
CONTINUOUS
10
114.6999999999999886
20
-107.8999999999999915
11
114.6999999999999886
21
-110.0999999999999943
0
LINE
8
BLACK
6
CONTINUOUS
10
116.5
20
-110.0999999999999943
11
115.25
21
-110.0999999999999943
0
LINE
8
BLACK
6
CONTINUOUS
10
115.25
20
-110.0999999999999943
11
115.25
21
-107.8999999999999915
0
LINE
8
BLACK
6
CONTINUOUS
10
115.25
20
-107.8999999999999915
11
116.5
21
-107.8999999999999915
0
LINE
8
BLACK
6
CONTINUOUS
10
116.5
20
-107.8999999999999915
11
116.5
21
-110.0999999999999943
0
LINE
8
BLACK
6
CONTINUOUS
10
156.4000000000000057
20
-110.0999999999999943
11
154.1999999999999886
21
-110.0999999999999943
0
LINE
8
BLACK
6
CONTINUOUS
10
154.1999999999999886
20
-110.0999999999999943
11
154.1999999999999886
21
-107.8999999999999915
0
LINE
8
BLACK
6
CONTINUOUS
10
154.1999999999999886
20
-107.8999999999999915
11
156.4000000000000057
21
-107.8999999999999915
0
LINE
8
BLACK
6
CONTINUOUS
10
156.4000000000000057
20
-107.8999999999999915
11
156.4000000000000057
21
-110.0999999999999943
0
LINE
8
BLACK
6
CONTINUOUS
10
158.1999999999999886
20
-110.0999999999999943
11
156.9499999999999886
21
-110.0999999999999943
0
LINE
8
BLACK
6
CONTINUOUS
10
156.9499999999999886
20
-110.0999999999999943
11
156.9499999999999886
21
-107.8999999999999915
0
LINE
8
BLACK
6
CONTINUOUS
10
156.9499999999999886
20
-107.8999999999999915
11
158.1999999999999886
21
-107.8999999999999915
0
LINE
8
BLACK
6
CONTINUOUS
10
158.1999999999999886
20
-107.8999999999999915
11
158.1999999999999886
21
-110.0999999999999943
0
LINE
8
BLACK
6
CONTINUOUS
10
98.4456709999999902
20
-103.6440300000000008
11
98.5267769999999956
21
-103.6982229999999987
0
LINE
8
BLACK
6
CONTINUOUS
10
98.5267769999999956
20
-103.6982229999999987
11
98.5809699999999935
21
-103.7793289999999899
0
LINE
8
BLACK
6
CONTINUOUS
10
98.5809699999999935
20
-103.7793289999999899
11
98.5999999999999943
21
-103.875
0
LINE
8
BLACK
6
CONTINUOUS
10
98.5999999999999943
20
-103.875
11
98.5999999999999943
21
-105.125
0
LINE
8
BLACK
6
CONTINUOUS
10
98.5999999999999943
20
-105.125
11
98.5809699999999935
21
-105.2206709999999958
0
LINE
8
BLACK
6
CONTINUOUS
10
98.5809699999999935
20
-105.2206709999999958
11
98.5267769999999956
21
-105.3017770000000013
0
LINE
8
BLACK
6
CONTINUOUS
10
98.5267769999999956
20
-105.3017770000000013
11
98.4456709999999902
21
-105.3559699999999992
0
LINE
8
BLACK
6
CONTINUOUS
10
98.4456709999999902
20
-105.3559699999999992
11
98.3499999999999943
21
-105.375
0
LINE
8
BLACK
6
CONTINUOUS
10
98.3499999999999943
20
-105.375
11
97.7249999999999943
21
-105.375
0
LINE
8
BLACK
6
CONTINUOUS
10
97.7249999999999943
20
-105.375
11
97.6293289999999985
21
-105.3559699999999992
0
LINE
8
BLACK
6
CONTINUOUS
10
97.6293289999999985
20
-105.3559699999999992
11
97.548222999999993
21
-105.3017770000000013
0
LINE
8
BLACK
6
CONTINUOUS
10
97.548222999999993
20
-105.3017770000000013
11
97.4940299999999951
21
-105.2206709999999958
0
LINE
8
BLACK
6
CONTINUOUS
10
97.4940299999999951
20
-105.2206709999999958
11
97.4749999999999943
21
-105.125
0
LINE
8
BLACK
6
CONTINUOUS
10
97.4749999999999943
20
-105.125
11
97.4749999999999943
21
-103.875
0
LINE
8
BLACK
6
CONTINUOUS
10
97.4749999999999943
20
-103.875
11
97.4940299999999951
21
-103.7793289999999899
0
LINE
8
BLACK
6
CONTINUOUS
10
97.4940299999999951
20
-103.7793289999999899
11
97.548222999999993
21
-103.6982229999999987
0
LINE
8
BLACK
6
CONTINUOUS
10
97.548222999999993
20
-103.6982229999999987
11
97.6293289999999985
21
-103.6440300000000008
0
LINE
8
BLACK
6
CONTINUOUS
10
97.6293289999999985
20
-103.6440300000000008
11
97.7249999999999943
21
-103.625
0
LINE
8
BLACK
6
CONTINUOUS
10
97.7249999999999943
20
-103.625
11
98.3499999999999943
21
-103.625
0
LINE
8
BLACK
6
CONTINUOUS
10
98.3499999999999943
20
-103.625
11
98.4456709999999902
21
-103.6440300000000008
0
LINE
8
BLACK
6
CONTINUOUS
10
101.3706710000000015
20
-103.6440300000000008
11
101.4517769999999928
21
-103.6982229999999987
0
LINE
8
BLACK
6
CONTINUOUS
10
101.4517769999999928
20
-103.6982229999999987
11
101.5059699999999907
21
-103.7793289999999899
0
LINE
8
BLACK
6
CONTINUOUS
10
101.5059699999999907
20
-103.7793289999999899
11
101.5249999999999915
21
-103.875
0
LINE
8
BLACK
6
CONTINUOUS
10
101.5249999999999915
20
-103.875
11
101.5249999999999915
21
-105.125
0
LINE
8
BLACK
6
CONTINUOUS
10
101.5249999999999915
20
-105.125
11
101.5059699999999907
21
-105.2206709999999958
0
LINE
8
BLACK
6
CONTINUOUS
10
101.5059699999999907
20
-105.2206709999999958
11
101.4517769999999928
21
-105.3017770000000013
0
LINE
8
BLACK
6
CONTINUOUS
10
101.4517769999999928
20
-105.3017770000000013
11
101.3706710000000015
21
-105.3559699999999992
0
LINE
8
BLACK
6
CONTINUOUS
10
101.3706710000000015
20
-105.3559699999999992
11
101.2749999999999915
21
-105.375
0
LINE
8
BLACK
6
CONTINUOUS
10
101.2749999999999915
20
-105.375
11
100.6499999999999915
21
-105.375
0
LINE
8
BLACK
6
CONTINUOUS
10
100.6499999999999915
20
-105.375
11
100.5543289999999956
21
-105.3559699999999992
0
LINE
8
BLACK
6
CONTINUOUS
10
100.5543289999999956
20
-105.3559699999999992
11
100.4732229999999902
21
-105.3017770000000013
0
LINE
8
BLACK
6
CONTINUOUS
10
100.4732229999999902
20
-105.3017770000000013
11
100.4190299999999922
21
-105.2206709999999958
0
LINE
8
BLACK
6
CONTINUOUS
10
100.4190299999999922
20
-105.2206709999999958
11
100.3999999999999915
21
-105.125
0
LINE
8
BLACK
6
CONTINUOUS
10
100.3999999999999915
20
-105.125
11
100.3999999999999915
21
-103.875
0
LINE
8
BLACK
6
CONTINUOUS
10
100.3999999999999915
20
-103.875
11
100.4190299999999922
21
-103.7793289999999899
0
LINE
8
BLACK
6
CONTINUOUS
10
100.4190299999999922
20
-103.7793289999999899
11
100.4732229999999902
21
-103.6982229999999987
0
LINE
8
BLACK
6
CONTINUOUS
10
100.4732229999999902
20
-103.6982229999999987
11
100.5543289999999956
21
-103.6440300000000008
0
LINE
8
BLACK
6
CONTINUOUS
10
100.5543289999999956
20
-103.6440300000000008
11
100.6499999999999915
21
-103.625
0
LINE
8
BLACK
6
CONTINUOUS
10
100.6499999999999915
20
-103.625
11
101.2749999999999915
21
-103.625
0
LINE
8
BLACK
6
CONTINUOUS
10
101.2749999999999915
20
-103.625
11
101.3706710000000015
21
-103.6440300000000008
0
LINE
8
BLACK
6
CONTINUOUS
10
161.4499999999999886
20
-97.5999999999999943
11
159.25
21
-97.5999999999999943
0
LINE
8
BLACK
6
CONTINUOUS
10
159.25
20
-97.5999999999999943
11
159.25
21
-95.3999999999999915
0
LINE
8
BLACK
6
CONTINUOUS
10
159.25
20
-95.3999999999999915
11
161.4499999999999886
21
-95.3999999999999915
0
LINE
8
BLACK
6
CONTINUOUS
10
161.4499999999999886
20
-95.3999999999999915
11
161.4499999999999886
21
-97.5999999999999943
0
LINE
8
BLACK
6
CONTINUOUS
10
163.25
20
-97.5999999999999943
11
162.
21
-97.5999999999999943
0
LINE
8
BLACK
6
CONTINUOUS
10
162.
20
-97.5999999999999943
11
162.
21
-95.3999999999999915
0
LINE
8
BLACK
6
CONTINUOUS
10
162.
20
-95.3999999999999915
11
163.25
21
-95.3999999999999915
0
LINE
8
BLACK
6
CONTINUOUS
10
163.25
20
-95.3999999999999915
11
163.25
21
-97.5999999999999943
0
LINE
8
BLACK
6
CONTINUOUS
10
178.9499999999999886
20
-97.5999999999999943
11
176.75
21
-97.5999999999999943
0
LINE
8
BLACK
6
CONTINUOUS
10
176.75
20
-97.5999999999999943
11
176.75
21
-95.3999999999999915
0
LINE
8
BLACK
6
CONTINUOUS
10
176.75
20
-95.3999999999999915
11
178.9499999999999886
21
-95.3999999999999915
0
LINE
8
BLACK
6
CONTINUOUS
10
178.9499999999999886
20
-95.3999999999999915
11
178.9499999999999886
21
-97.5999999999999943
0
LINE
8
BLACK
6
CONTINUOUS
10
180.75
20
-97.5999999999999943
11
179.5
21
-97.5999999999999943
0
LINE
8
BLACK
6
CONTINUOUS
10
179.5
20
-97.5999999999999943
11
179.5
21
-95.3999999999999915
0
LINE
8
BLACK
6
CONTINUOUS
10
179.5
20
-95.3999999999999915
11
180.75
21
-95.3999999999999915
0
LINE
8
BLACK
6
CONTINUOUS
10
180.75
20
-95.3999999999999915
11
180.75
21
-97.5999999999999943
0
LINE
8
BLACK
6
CONTINUOUS
10
120.6999999999999886
20
-97.0999999999999943
11
118.5
21
-97.0999999999999943
0
LINE
8
BLACK
6
CONTINUOUS
10
118.5
20
-97.0999999999999943
11
118.5
21
-94.8999999999999915
0
LINE
8
BLACK
6
CONTINUOUS
10
118.5
20
-94.8999999999999915
11
120.6999999999999886
21
-94.8999999999999915
0
LINE
8
BLACK
6
CONTINUOUS
10
120.6999999999999886
20
-94.8999999999999915
11
120.6999999999999886
21
-97.0999999999999943
0
LINE
8
BLACK
6
CONTINUOUS
10
122.5
20
-97.0999999999999943
11
121.25
21
-97.0999999999999943
0
LINE
8
BLACK
6
CONTINUOUS
10
121.25
20
-97.0999999999999943
11
121.25
21
-94.8999999999999915
0
LINE
8
BLACK
6
CONTINUOUS
10
121.25
20
-94.8999999999999915
11
122.5
21
-94.8999999999999915
0
LINE
8
BLACK
6
CONTINUOUS
10
122.5
20
-94.8999999999999915
11
122.5
21
-97.0999999999999943
0
LINE
8
BLACK
6
CONTINUOUS
10
136.4499999999999886
20
-97.0999999999999943
11
134.25
21
-97.0999999999999943
0
LINE
8
BLACK
6
CONTINUOUS
10
134.25
20
-97.0999999999999943
11
134.25
21
-94.8999999999999915
0
LINE
8
BLACK
6
CONTINUOUS
10
134.25
20
-94.8999999999999915
11
136.4499999999999886
21
-94.8999999999999915
0
LINE
8
BLACK
6
CONTINUOUS
10
136.4499999999999886
20
-94.8999999999999915
11
136.4499999999999886
21
-97.0999999999999943
0
LINE
8
BLACK
6
CONTINUOUS
10
138.25
20
-97.0999999999999943
11
137.
21
-97.0999999999999943
0
LINE
8
BLACK
6
CONTINUOUS
10
137.
20
-97.0999999999999943
11
137.
21
-94.8999999999999915
0
LINE
8
BLACK
6
CONTINUOUS
10
137.
20
-94.8999999999999915
11
138.25
21
-94.8999999999999915
0
LINE
8
BLACK
6
CONTINUOUS
10
138.25
20
-94.8999999999999915
11
138.25
21
-97.0999999999999943
0
LINE
8
BLACK
6
CONTINUOUS
10
103.5999999999999943
20
-95.4333329999999904
11
101.3999999999999915
21
-95.4333329999999904
0
LINE
8
BLACK
6
CONTINUOUS
10
101.3999999999999915
20
-95.4333329999999904
11
101.3999999999999915
21
-93.2333330000000018
0
LINE
8
BLACK
6
CONTINUOUS
10
101.3999999999999915
20
-93.2333330000000018
11
103.5999999999999943
21
-93.2333330000000018
0
LINE
8
BLACK
6
CONTINUOUS
10
103.5999999999999943
20
-93.2333330000000018
11
103.5999999999999943
21
-95.4333329999999904
0
LINE
8
BLACK
6
CONTINUOUS
10
105.3999999999999915
20
-95.4333329999999904
11
104.1499999999999915
21
-95.4333329999999904
0
LINE
8
BLACK
6
CONTINUOUS
10
104.1499999999999915
20
-95.4333329999999904
11
104.1499999999999915
21
-93.2333330000000018
0
LINE
8
BLACK
6
CONTINUOUS
10
104.1499999999999915
20
-93.2333330000000018
11
105.3999999999999915
21
-93.2333330000000018
0
LINE
8
BLACK
6
CONTINUOUS
10
105.3999999999999915
20
-93.2333330000000018
11
105.3999999999999915
21
-95.4333329999999904
0
LINE
8
BLACK
6
CONTINUOUS
10
98.4456709999999902
20
-89.6440300000000008
11
98.5267769999999956
21
-89.6982229999999987
0
LINE
8
BLACK
6
CONTINUOUS
10
98.5267769999999956
20
-89.6982229999999987
11
98.5809699999999935
21
-89.7793289999999899
0
LINE
8
BLACK
6
CONTINUOUS
10
98.5809699999999935
20
-89.7793289999999899
11
98.5999999999999943
21
-89.875
0
LINE
8
BLACK
6
CONTINUOUS
10
98.5999999999999943
20
-89.875
11
98.5999999999999943
21
-91.125
0
LINE
8
BLACK
6
CONTINUOUS
10
98.5999999999999943
20
-91.125
11
98.5809699999999935
21
-91.2206709999999958
0
LINE
8
BLACK
6
CONTINUOUS
10
98.5809699999999935
20
-91.2206709999999958
11
98.5267769999999956
21
-91.3017770000000013
0
LINE
8
BLACK
6
CONTINUOUS
10
98.5267769999999956
20
-91.3017770000000013
11
98.4456709999999902
21
-91.3559699999999992
0
LINE
8
BLACK
6
CONTINUOUS
10
98.4456709999999902
20
-91.3559699999999992
11
98.3499999999999943
21
-91.375
0
LINE
8
BLACK
6
CONTINUOUS
10
98.3499999999999943
20
-91.375
11
97.7249999999999943
21
-91.375
0
LINE
8
BLACK
6
CONTINUOUS
10
97.7249999999999943
20
-91.375
11
97.6293289999999985
21
-91.3559699999999992
0
LINE
8
BLACK
6
CONTINUOUS
10
97.6293289999999985
20
-91.3559699999999992
11
97.548222999999993
21
-91.3017770000000013
0
LINE
8
BLACK
6
CONTINUOUS
10
97.548222999999993
20
-91.3017770000000013
11
97.4940299999999951
21
-91.2206709999999958
0
LINE
8
BLACK
6
CONTINUOUS
10
97.4940299999999951
20
-91.2206709999999958
11
97.4749999999999943
21
-91.125
0
LINE
8
BLACK
6
CONTINUOUS
10
97.4749999999999943
20
-91.125
11
97.4749999999999943
21
-89.875
0
LINE
8
BLACK
6
CONTINUOUS
10
97.4749999999999943
20
-89.875
11
97.4940299999999951
21
-89.7793289999999899
0
LINE
8
BLACK
6
CONTINUOUS
10
97.4940299999999951
20
-89.7793289999999899
11
97.548222999999993
21
-89.6982229999999987
0
LINE
8
BLACK
6
CONTINUOUS
10
97.548222999999993
20
-89.6982229999999987
11
97.6293289999999985
21
-89.6440300000000008
0
LINE
8
BLACK
6
CONTINUOUS
10
97.6293289999999985
20
-89.6440300000000008
11
97.7249999999999943
21
-89.625
0
LINE
8
BLACK
6
CONTINUOUS
10
97.7249999999999943
20
-89.625
11
98.3499999999999943
21
-89.625
0
LINE
8
BLACK
6
CONTINUOUS
10
98.3499999999999943
20
-89.625
11
98.4456709999999902
21
-89.6440300000000008
0
LINE
8
BLACK
6
CONTINUOUS
10
101.3706710000000015
20
-89.6440300000000008
11
101.4517769999999928
21
-89.6982229999999987
0
LINE
8
BLACK
6
CONTINUOUS
10
101.4517769999999928
20
-89.6982229999999987
11
101.5059699999999907
21
-89.7793289999999899
0
LINE
8
BLACK
6
CONTINUOUS
10
101.5059699999999907
20
-89.7793289999999899
11
101.5249999999999915
21
-89.875
0
LINE
8
BLACK
6
CONTINUOUS
10
101.5249999999999915
20
-89.875
11
101.5249999999999915
21
-91.125
0
LINE
8
BLACK
6
CONTINUOUS
10
101.5249999999999915
20
-91.125
11
101.5059699999999907
21
-91.2206709999999958
0
LINE
8
BLACK
6
CONTINUOUS
10
101.5059699999999907
20
-91.2206709999999958
11
101.4517769999999928
21
-91.3017770000000013
0
LINE
8
BLACK
6
CONTINUOUS
10
101.4517769999999928
20
-91.3017770000000013
11
101.3706710000000015
21
-91.3559699999999992
0
LINE
8
BLACK
6
CONTINUOUS
10
101.3706710000000015
20
-91.3559699999999992
11
101.2749999999999915
21
-91.375
0
LINE
8
BLACK
6
CONTINUOUS
10
101.2749999999999915
20
-91.375
11
100.6499999999999915
21
-91.375
0
LINE
8
BLACK
6
CONTINUOUS
10
100.6499999999999915
20
-91.375
11
100.5543289999999956
21
-91.3559699999999992
0
LINE
8
BLACK
6
CONTINUOUS
10
100.5543289999999956
20
-91.3559699999999992
11
100.4732229999999902
21
-91.3017770000000013
0
LINE
8
BLACK
6
CONTINUOUS
10
100.4732229999999902
20
-91.3017770000000013
11
100.4190299999999922
21
-91.2206709999999958
0
LINE
8
BLACK
6
CONTINUOUS
10
100.4190299999999922
20
-91.2206709999999958
11
100.3999999999999915
21
-91.125
0
LINE
8
BLACK
6
CONTINUOUS
10
100.3999999999999915
20
-91.125
11
100.3999999999999915
21
-89.875
0
LINE
8
BLACK
6
CONTINUOUS
10
100.3999999999999915
20
-89.875
11
100.4190299999999922
21
-89.7793289999999899
0
LINE
8
BLACK
6
CONTINUOUS
10
100.4190299999999922
20
-89.7793289999999899
11
100.4732229999999902
21
-89.6982229999999987
0
LINE
8
BLACK
6
CONTINUOUS
10
100.4732229999999902
20
-89.6982229999999987
11
100.5543289999999956
21
-89.6440300000000008
0
LINE
8
BLACK
6
CONTINUOUS
10
100.5543289999999956
20
-89.6440300000000008
11
100.6499999999999915
21
-89.625
0
LINE
8
BLACK
6
CONTINUOUS
10
100.6499999999999915
20
-89.625
11
101.2749999999999915
21
-89.625
0
LINE
8
BLACK
6
CONTINUOUS
10
101.2749999999999915
20
-89.625
11
101.3706710000000015
21
-89.6440300000000008
0
LINE
8
BLACK
6
CONTINUOUS
10
128.5999999999999943
20
-85.7000000000000028
11
126.3999999999999915
21
-85.7000000000000028
0
LINE
8
BLACK
6
CONTINUOUS
10
126.3999999999999915
20
-85.7000000000000028
11
126.3999999999999915
21
-83.5
0
LINE
8
BLACK
6
CONTINUOUS
10
126.3999999999999915
20
-83.5
11
128.5999999999999943
21
-83.5
0
LINE
8
BLACK
6
CONTINUOUS
10
128.5999999999999943
20
-83.5
11
128.5999999999999943
21
-85.7000000000000028
0
LINE
8
BLACK
6
CONTINUOUS
10
130.4000000000000057
20
-85.7000000000000028
11
129.1500000000000057
21
-85.7000000000000028
0
LINE
8
BLACK
6
CONTINUOUS
10
129.1500000000000057
20
-85.7000000000000028
11
129.1500000000000057
21
-83.5
0
LINE
8
BLACK
6
CONTINUOUS
10
129.1500000000000057
20
-83.5
11
130.4000000000000057
21
-83.5
0
LINE
8
BLACK
6
CONTINUOUS
10
130.4000000000000057
20
-83.5
11
130.4000000000000057
21
-85.7000000000000028
0
LINE
8
BLACK
6
CONTINUOUS
10
142.5
20
-85.7000000000000028
11
140.2999999999999829
21
-85.7000000000000028
0
LINE
8
BLACK
6
CONTINUOUS
10
140.2999999999999829
20
-85.7000000000000028
11
140.2999999999999829
21
-83.5
0
LINE
8
BLACK
6
CONTINUOUS
10
140.2999999999999829
20
-83.5
11
142.5
21
-83.5
0
LINE
8
BLACK
6
CONTINUOUS
10
142.5
20
-83.5
11
142.5
21
-85.7000000000000028
0
LINE
8
BLACK
6
CONTINUOUS
10
144.2999999999999829
20
-85.7000000000000028
11
143.0499999999999829
21
-85.7000000000000028
0
LINE
8
BLACK
6
CONTINUOUS
10
143.0499999999999829
20
-85.7000000000000028
11
143.0499999999999829
21
-83.5
0
LINE
8
BLACK
6
CONTINUOUS
10
143.0499999999999829
20
-83.5
11
144.2999999999999829
21
-83.5
0
LINE
8
BLACK
6
CONTINUOUS
10
144.2999999999999829
20
-83.5
11
144.2999999999999829
21
-85.7000000000000028
0
LINE
8
BLACK
6
CONTINUOUS
10
156.4000000000000057
20
-85.7000000000000028
11
154.1999999999999886
21
-85.7000000000000028
0
LINE
8
BLACK
6
CONTINUOUS
10
154.1999999999999886
20
-85.7000000000000028
11
154.1999999999999886
21
-83.5
0
LINE
8
BLACK
6
CONTINUOUS
10
154.1999999999999886
20
-83.5
11
156.4000000000000057
21
-83.5
0
LINE
8
BLACK
6
CONTINUOUS
10
156.4000000000000057
20
-83.5
11
156.4000000000000057
21
-85.7000000000000028
0
LINE
8
BLACK
6
CONTINUOUS
10
158.1999999999999886
20
-85.7000000000000028
11
156.9499999999999886
21
-85.7000000000000028
0
LINE
8
BLACK
6
CONTINUOUS
10
156.9499999999999886
20
-85.7000000000000028
11
156.9499999999999886
21
-83.5
0
LINE
8
BLACK
6
CONTINUOUS
10
156.9499999999999886
20
-83.5
11
158.1999999999999886
21
-83.5
0
LINE
8
BLACK
6
CONTINUOUS
10
158.1999999999999886
20
-83.5
11
158.1999999999999886
21
-85.7000000000000028
0
LINE
8
BLACK
6
CONTINUOUS
10
170.2999999999999829
20
-85.7000000000000028
11
168.0999999999999943
21
-85.7000000000000028
0
LINE
8
BLACK
6
CONTINUOUS
10
168.0999999999999943
20
-85.7000000000000028
11
168.0999999999999943
21
-83.5
0
LINE
8
BLACK
6
CONTINUOUS
10
168.0999999999999943
20
-83.5
11
170.2999999999999829
21
-83.5
0
LINE
8
BLACK
6
CONTINUOUS
10
170.2999999999999829
20
-83.5
11
170.2999999999999829
21
-85.7000000000000028
0
LINE
8
BLACK
6
CONTINUOUS
10
172.0999999999999943
20
-85.7000000000000028
11
170.8499999999999943
21
-85.7000000000000028
0
LINE
8
BLACK
6
CONTINUOUS
10
170.8499999999999943
20
-85.7000000000000028
11
170.8499999999999943
21
-83.5
0
LINE
8
BLACK
6
CONTINUOUS
10
170.8499999999999943
20
-83.5
11
172.0999999999999943
21
-83.5
0
LINE
8
BLACK
6
CONTINUOUS
10
172.0999999999999943
20
-83.5
11
172.0999999999999943
21
-85.7000000000000028
0
LINE
8
BLACK
6
CONTINUOUS
10
185.2999999999999829
20
-85.7000000000000028
11
183.0999999999999943
21
-85.7000000000000028
0
LINE
8
BLACK
6
CONTINUOUS
10
183.0999999999999943
20
-85.7000000000000028
11
183.0999999999999943
21
-83.5
0
LINE
8
BLACK
6
CONTINUOUS
10
183.0999999999999943
20
-83.5
11
185.2999999999999829
21
-83.5
0
LINE
8
BLACK
6
CONTINUOUS
10
185.2999999999999829
20
-83.5
11
185.2999999999999829
21
-85.7000000000000028
0
LINE
8
BLACK
6
CONTINUOUS
10
187.0999999999999943
20
-85.7000000000000028
11
185.8499999999999943
21
-85.7000000000000028
0
LINE
8
BLACK
6
CONTINUOUS
10
185.8499999999999943
20
-85.7000000000000028
11
185.8499999999999943
21
-83.5
0
LINE
8
BLACK
6
CONTINUOUS
10
185.8499999999999943
20
-83.5
11
187.0999999999999943
21
-83.5
0
LINE
8
BLACK
6
CONTINUOUS
10
187.0999999999999943
20
-83.5
11
187.0999999999999943
21
-85.7000000000000028
0
LINE
8
BLACK
6
CONTINUOUS
10
114.1999999999999886
20
-85.5999999999999943
11
112.
21
-85.5999999999999943
0
LINE
8
BLACK
6
CONTINUOUS
10
112.
20
-85.5999999999999943
11
112.
21
-83.3999999999999915
0
LINE
8
BLACK
6
CONTINUOUS
10
112.
20
-83.3999999999999915
11
114.1999999999999886
21
-83.3999999999999915
0
LINE
8
BLACK
6
CONTINUOUS
10
114.1999999999999886
20
-83.3999999999999915
11
114.1999999999999886
21
-85.5999999999999943
0
LINE
8
BLACK
6
CONTINUOUS
10
116.
20
-85.5999999999999943
11
114.75
21
-85.5999999999999943
0
LINE
8
BLACK
6
CONTINUOUS
10
114.75
20
-85.5999999999999943
11
114.75
21
-83.3999999999999915
0
LINE
8
BLACK
6
CONTINUOUS
10
114.75
20
-83.3999999999999915
11
116.
21
-83.3999999999999915
0
LINE
8
BLACK
6
CONTINUOUS
10
116.
20
-83.3999999999999915
11
116.
21
-85.5999999999999943
0
LINE
8
BLACK
6
CONTINUOUS
10
98.4456709999999902
20
-82.6440300000000008
11
98.5267769999999956
21
-82.6982229999999987
0
LINE
8
BLACK
6
CONTINUOUS
10
98.5267769999999956
20
-82.6982229999999987
11
98.5809699999999935
21
-82.7793289999999899
0
LINE
8
BLACK
6
CONTINUOUS
10
98.5809699999999935
20
-82.7793289999999899
11
98.5999999999999943
21
-82.875
0
LINE
8
BLACK
6
CONTINUOUS
10
98.5999999999999943
20
-82.875
11
98.5999999999999943
21
-84.125
0
LINE
8
BLACK
6
CONTINUOUS
10
98.5999999999999943
20
-84.125
11
98.5809699999999935
21
-84.2206709999999958
0
LINE
8
BLACK
6
CONTINUOUS
10
98.5809699999999935
20
-84.2206709999999958
11
98.5267769999999956
21
-84.3017770000000013
0
LINE
8
BLACK
6
CONTINUOUS
10
98.5267769999999956
20
-84.3017770000000013
11
98.4456709999999902
21
-84.3559699999999992
0
LINE
8
BLACK
6
CONTINUOUS
10
98.4456709999999902
20
-84.3559699999999992
11
98.3499999999999943
21
-84.375
0
LINE
8
BLACK
6
CONTINUOUS
10
98.3499999999999943
20
-84.375
11
97.7249999999999943
21
-84.375
0
LINE
8
BLACK
6
CONTINUOUS
10
97.7249999999999943
20
-84.375
11
97.6293289999999985
21
-84.3559699999999992
0
LINE
8
BLACK
6
CONTINUOUS
10
97.6293289999999985
20
-84.3559699999999992
11
97.548222999999993
21
-84.3017770000000013
0
LINE
8
BLACK
6
CONTINUOUS
10
97.548222999999993
20
-84.3017770000000013
11
97.4940299999999951
21
-84.2206709999999958
0
LINE
8
BLACK
6
CONTINUOUS
10
97.4940299999999951
20
-84.2206709999999958
11
97.4749999999999943
21
-84.125
0
LINE
8
BLACK
6
CONTINUOUS
10
97.4749999999999943
20
-84.125
11
97.4749999999999943
21
-82.875
0
LINE
8
BLACK
6
CONTINUOUS
10
97.4749999999999943
20
-82.875
11
97.4940299999999951
21
-82.7793289999999899
0
LINE
8
BLACK
6
CONTINUOUS
10
97.4940299999999951
20
-82.7793289999999899
11
97.548222999999993
21
-82.6982229999999987
0
LINE
8
BLACK
6
CONTINUOUS
10
97.548222999999993
20
-82.6982229999999987
11
97.6293289999999985
21
-82.6440300000000008
0
LINE
8
BLACK
6
CONTINUOUS
10
97.6293289999999985
20
-82.6440300000000008
11
97.7249999999999943
21
-82.625
0
LINE
8
BLACK
6
CONTINUOUS
10
97.7249999999999943
20
-82.625
11
98.3499999999999943
21
-82.625
0
LINE
8
BLACK
6
CONTINUOUS
10
98.3499999999999943
20
-82.625
11
98.4456709999999902
21
-82.6440300000000008
0
LINE
8
BLACK
6
CONTINUOUS
10
101.3706710000000015
20
-82.6440300000000008
11
101.4517769999999928
21
-82.6982229999999987
0
LINE
8
BLACK
6
CONTINUOUS
10
101.4517769999999928
20
-82.6982229999999987
11
101.5059699999999907
21
-82.7793289999999899
0
LINE
8
BLACK
6
CONTINUOUS
10
101.5059699999999907
20
-82.7793289999999899
11
101.5249999999999915
21
-82.875
0
LINE
8
BLACK
6
CONTINUOUS
10
101.5249999999999915
20
-82.875
11
101.5249999999999915
21
-84.125
0
LINE
8
BLACK
6
CONTINUOUS
10
101.5249999999999915
20
-84.125
11
101.5059699999999907
21
-84.2206709999999958
0
LINE
8
BLACK
6
CONTINUOUS
10
101.5059699999999907
20
-84.2206709999999958
11
101.4517769999999928
21
-84.3017770000000013
0
LINE
8
BLACK
6
CONTINUOUS
10
101.4517769999999928
20
-84.3017770000000013
11
101.3706710000000015
21
-84.3559699999999992
0
LINE
8
BLACK
6
CONTINUOUS
10
101.3706710000000015
20
-84.3559699999999992
11
101.2749999999999915
21
-84.375
0
LINE
8
BLACK
6
CONTINUOUS
10
101.2749999999999915
20
-84.375
11
100.6499999999999915
21
-84.375
0
LINE
8
BLACK
6
CONTINUOUS
10
100.6499999999999915
20
-84.375
11
100.5543289999999956
21
-84.3559699999999992
0
LINE
8
BLACK
6
CONTINUOUS
10
100.5543289999999956
20
-84.3559699999999992
11
100.4732229999999902
21
-84.3017770000000013
0
LINE
8
BLACK
6
CONTINUOUS
10
100.4732229999999902
20
-84.3017770000000013
11
100.4190299999999922
21
-84.2206709999999958
0
LINE
8
BLACK
6
CONTINUOUS
10
100.4190299999999922
20
-84.2206709999999958
11
100.3999999999999915
21
-84.125
0
LINE
8
BLACK
6
CONTINUOUS
10
100.3999999999999915
20
-84.125
11
100.3999999999999915
21
-82.875
0
LINE
8
BLACK
6
CONTINUOUS
10
100.3999999999999915
20
-82.875
11
100.4190299999999922
21
-82.7793289999999899
0
LINE
8
BLACK
6
CONTINUOUS
10
100.4190299999999922
20
-82.7793289999999899
11
100.4732229999999902
21
-82.6982229999999987
0
LINE
8
BLACK
6
CONTINUOUS
10
100.4732229999999902
20
-82.6982229999999987
11
100.5543289999999956
21
-82.6440300000000008
0
LINE
8
BLACK
6
CONTINUOUS
10
100.5543289999999956
20
-82.6440300000000008
11
100.6499999999999915
21
-82.625
0
LINE
8
BLACK
6
CONTINUOUS
10
100.6499999999999915
20
-82.625
11
101.2749999999999915
21
-82.625
0
LINE
8
BLACK
6
CONTINUOUS
10
101.2749999999999915
20
-82.625
11
101.3706710000000015
21
-82.6440300000000008
0
LINE
8
BLACK
6
CONTINUOUS
10
103.5999999999999943
20
-80.5999999999999943
11
101.3999999999999915
21
-80.5999999999999943
0
LINE
8
BLACK
6
CONTINUOUS
10
101.3999999999999915
20
-80.5999999999999943
11
101.3999999999999915
21
-78.3999999999999915
0
LINE
8
BLACK
6
CONTINUOUS
10
101.3999999999999915
20
-78.3999999999999915
11
103.5999999999999943
21
-78.3999999999999915
0
LINE
8
BLACK
6
CONTINUOUS
10
103.5999999999999943
20
-78.3999999999999915
11
103.5999999999999943
21
-80.5999999999999943
0
LINE
8
BLACK
6
CONTINUOUS
10
105.3999999999999915
20
-80.5999999999999943
11
104.1499999999999915
21
-80.5999999999999943
0
LINE
8
BLACK
6
CONTINUOUS
10
104.1499999999999915
20
-80.5999999999999943
11
104.1499999999999915
21
-78.3999999999999915
0
LINE
8
BLACK
6
CONTINUOUS
10
104.1499999999999915
20
-78.3999999999999915
11
105.3999999999999915
21
-78.3999999999999915
0
LINE
8
BLACK
6
CONTINUOUS
10
105.3999999999999915
20
-78.3999999999999915
11
105.3999999999999915
21
-80.5999999999999943
0
LINE
8
BLACK
6
CONTINUOUS
10
155.6999999999999886
20
-71.5999999999999943
11
153.5
21
-71.5999999999999943
0
LINE
8
BLACK
6
CONTINUOUS
10
153.5
20
-71.5999999999999943
11
153.5
21
-69.3999999999999915
0
LINE
8
BLACK
6
CONTINUOUS
10
153.5
20
-69.3999999999999915
11
155.6999999999999886
21
-69.3999999999999915
0
LINE
8
BLACK
6
CONTINUOUS
10
155.6999999999999886
20
-69.3999999999999915
11
155.6999999999999886
21
-71.5999999999999943
0
LINE
8
BLACK
6
CONTINUOUS
10
157.5
20
-71.5999999999999943
11
156.25
21
-71.5999999999999943
0
LINE
8
BLACK
6
CONTINUOUS
10
156.25
20
-71.5999999999999943
11
156.25
21
-69.3999999999999915
0
LINE
8
BLACK
6
CONTINUOUS
10
156.25
20
-69.3999999999999915
11
157.5
21
-69.3999999999999915
0
LINE
8
BLACK
6
CONTINUOUS
10
157.5
20
-69.3999999999999915
11
157.5
21
-71.5999999999999943
0
LINE
8
BLACK
6
CONTINUOUS
10
114.0999999999999943
20
-71.2000000000000028
11
111.8999999999999915
21
-71.2000000000000028
0
LINE
8
BLACK
6
CONTINUOUS
10
111.8999999999999915
20
-71.2000000000000028
11
111.8999999999999915
21
-69.
0
LINE
8
BLACK
6
CONTINUOUS
10
111.8999999999999915
20
-69.
11
114.0999999999999943
21
-69.
0
LINE
8
BLACK
6
CONTINUOUS
10
114.0999999999999943
20
-69.
11
114.0999999999999943
21
-71.2000000000000028
0
LINE
8
BLACK
6
CONTINUOUS
10
115.8999999999999915
20
-71.2000000000000028
11
114.6499999999999915
21
-71.2000000000000028
0
LINE
8
BLACK
6
CONTINUOUS
10
114.6499999999999915
20
-71.2000000000000028
11
114.6499999999999915
21
-69.
0
LINE
8
BLACK
6
CONTINUOUS
10
114.6499999999999915
20
-69.
11
115.8999999999999915
21
-69.
0
LINE
8
BLACK
6
CONTINUOUS
10
115.8999999999999915
20
-69.
11
115.8999999999999915
21
-71.2000000000000028
0
LINE
8
BLACK
6
CONTINUOUS
10
128.5999999999999943
20
-71.0999999999999943
11
126.3999999999999915
21
-71.0999999999999943
0
LINE
8
BLACK
6
CONTINUOUS
10
126.3999999999999915
20
-71.0999999999999943
11
126.3999999999999915
21
-68.8999999999999915
0
LINE
8
BLACK
6
CONTINUOUS
10
126.3999999999999915
20
-68.8999999999999915
11
128.5999999999999943
21
-68.8999999999999915
0
LINE
8
BLACK
6
CONTINUOUS
10
128.5999999999999943
20
-68.8999999999999915
11
128.5999999999999943
21
-71.0999999999999943
0
LINE
8
BLACK
6
CONTINUOUS
10
130.4000000000000057
20
-71.0999999999999943
11
129.1500000000000057
21
-71.0999999999999943
0
LINE
8
BLACK
6
CONTINUOUS
10
129.1500000000000057
20
-71.0999999999999943
11
129.1500000000000057
21
-68.8999999999999915
0
LINE
8
BLACK
6
CONTINUOUS
10
129.1500000000000057
20
-68.8999999999999915
11
130.4000000000000057
21
-68.8999999999999915
0
LINE
8
BLACK
6
CONTINUOUS
10
130.4000000000000057
20
-68.8999999999999915
11
130.4000000000000057
21
-71.0999999999999943
0
LINE
8
BLACK
6
CONTINUOUS
10
142.3249999999999886
20
-71.0999999999999943
11
140.125
21
-71.0999999999999943
0
LINE
8
BLACK
6
CONTINUOUS
10
140.125
20
-71.0999999999999943
11
140.125
21
-68.8999999999999915
0
LINE
8
BLACK
6
CONTINUOUS
10
140.125
20
-68.8999999999999915
11
142.3249999999999886
21
-68.8999999999999915
0
LINE
8
BLACK
6
CONTINUOUS
10
142.3249999999999886
20
-68.8999999999999915
11
142.3249999999999886
21
-71.0999999999999943
0
LINE
8
BLACK
6
CONTINUOUS
10
144.125
20
-71.0999999999999943
11
142.875
21
-71.0999999999999943
0
LINE
8
BLACK
6
CONTINUOUS
10
142.875
20
-71.0999999999999943
11
142.875
21
-68.8999999999999915
0
LINE
8
BLACK
6
CONTINUOUS
10
142.875
20
-68.8999999999999915
11
144.125
21
-68.8999999999999915
0
LINE
8
BLACK
6
CONTINUOUS
10
144.125
20
-68.8999999999999915
11
144.125
21
-71.0999999999999943
0
LINE
8
BLACK
6
CONTINUOUS
10
169.7750000000000057
20
-71.0999999999999943
11
167.5749999999999886
21
-71.0999999999999943
0
LINE
8
BLACK
6
CONTINUOUS
10
167.5749999999999886
20
-71.0999999999999943
11
167.5749999999999886
21
-68.8999999999999915
0
LINE
8
BLACK
6
CONTINUOUS
10
167.5749999999999886
20
-68.8999999999999915
11
169.7750000000000057
21
-68.8999999999999915
0
LINE
8
BLACK
6
CONTINUOUS
10
169.7750000000000057
20
-68.8999999999999915
11
169.7750000000000057
21
-71.0999999999999943
0
LINE
8
BLACK
6
CONTINUOUS
10
171.5749999999999886
20
-71.0999999999999943
11
170.3249999999999886
21
-71.0999999999999943
0
LINE
8
BLACK
6
CONTINUOUS
10
170.3249999999999886
20
-71.0999999999999943
11
170.3249999999999886
21
-68.8999999999999915
0
LINE
8
BLACK
6
CONTINUOUS
10
170.3249999999999886
20
-68.8999999999999915
11
171.5749999999999886
21
-68.8999999999999915
0
LINE
8
BLACK
6
CONTINUOUS
10
171.5749999999999886
20
-68.8999999999999915
11
171.5749999999999886
21
-71.0999999999999943
0
LINE
8
BLACK
6
CONTINUOUS
10
185.0999999999999943
20
-71.0999999999999943
11
182.9000000000000057
21
-71.0999999999999943
0
LINE
8
BLACK
6
CONTINUOUS
10
182.9000000000000057
20
-71.0999999999999943
11
182.9000000000000057
21
-68.8999999999999915
0
LINE
8
BLACK
6
CONTINUOUS
10
182.9000000000000057
20
-68.8999999999999915
11
185.0999999999999943
21
-68.8999999999999915
0
LINE
8
BLACK
6
CONTINUOUS
10
185.0999999999999943
20
-68.8999999999999915
11
185.0999999999999943
21
-71.0999999999999943
0
LINE
8
BLACK
6
CONTINUOUS
10
186.9000000000000057
20
-71.0999999999999943
11
185.6500000000000057
21
-71.0999999999999943
0
LINE
8
BLACK
6
CONTINUOUS
10
185.6500000000000057
20
-71.0999999999999943
11
185.6500000000000057
21
-68.8999999999999915
0
LINE
8
BLACK
6
CONTINUOUS
10
185.6500000000000057
20
-68.8999999999999915
11
186.9000000000000057
21
-68.8999999999999915
0
LINE
8
BLACK
6
CONTINUOUS
10
186.9000000000000057
20
-68.8999999999999915
11
186.9000000000000057
21
-71.0999999999999943
0
LINE
8
BLACK
6
CONTINUOUS
10
98.4456709999999902
20
-68.8440300000000036
11
98.5267769999999956
21
-68.8982230000000015
0
LINE
8
BLACK
6
CONTINUOUS
10
98.5267769999999956
20
-68.8982230000000015
11
98.5809699999999935
21
-68.9793289999999928
0
LINE
8
BLACK
6
CONTINUOUS
10
98.5809699999999935
20
-68.9793289999999928
11
98.5999999999999943
21
-69.0750000000000028
0
LINE
8
BLACK
6
CONTINUOUS
10
98.5999999999999943
20
-69.0750000000000028
11
98.5999999999999943
21
-70.3250000000000028
0
LINE
8
BLACK
6
CONTINUOUS
10
98.5999999999999943
20
-70.3250000000000028
11
98.5809699999999935
21
-70.4206709999999987
0
LINE
8
BLACK
6
CONTINUOUS
10
98.5809699999999935
20
-70.4206709999999987
11
98.5267769999999956
21
-70.5017769999999899
0
LINE
8
BLACK
6
CONTINUOUS
10
98.5267769999999956
20
-70.5017769999999899
11
98.4456709999999902
21
-70.5559700000000021
0
LINE
8
BLACK
6
CONTINUOUS
10
98.4456709999999902
20
-70.5559700000000021
11
98.3499999999999943
21
-70.5750000000000028
0
LINE
8
BLACK
6
CONTINUOUS
10
98.3499999999999943
20
-70.5750000000000028
11
97.7249999999999943
21
-70.5750000000000028
0
LINE
8
BLACK
6
CONTINUOUS
10
97.7249999999999943
20
-70.5750000000000028
11
97.6293289999999985
21
-70.5559700000000021
0
LINE
8
BLACK
6
CONTINUOUS
10
97.6293289999999985
20
-70.5559700000000021
11
97.548222999999993
21
-70.5017769999999899
0
LINE
8
BLACK
6
CONTINUOUS
10
97.548222999999993
20
-70.5017769999999899
11
97.4940299999999951
21
-70.4206709999999987
0
LINE
8
BLACK
6
CONTINUOUS
10
97.4940299999999951
20
-70.4206709999999987
11
97.4749999999999943
21
-70.3250000000000028
0
LINE
8
BLACK
6
CONTINUOUS
10
97.4749999999999943
20
-70.3250000000000028
11
97.4749999999999943
21
-69.0750000000000028
0
LINE
8
BLACK
6
CONTINUOUS
10
97.4749999999999943
20
-69.0750000000000028
11
97.4940299999999951
21
-68.9793289999999928
0
LINE
8
BLACK
6
CONTINUOUS
10
97.4940299999999951
20
-68.9793289999999928
11
97.548222999999993
21
-68.8982230000000015
0
LINE
8
BLACK
6
CONTINUOUS
10
97.548222999999993
20
-68.8982230000000015
11
97.6293289999999985
21
-68.8440300000000036
0
LINE
8
BLACK
6
CONTINUOUS
10
97.6293289999999985
20
-68.8440300000000036
11
97.7249999999999943
21
-68.8250000000000028
0
LINE
8
BLACK
6
CONTINUOUS
10
97.7249999999999943
20
-68.8250000000000028
11
98.3499999999999943
21
-68.8250000000000028
0
LINE
8
BLACK
6
CONTINUOUS
10
98.3499999999999943
20
-68.8250000000000028
11
98.4456709999999902
21
-68.8440300000000036
0
LINE
8
BLACK
6
CONTINUOUS
10
101.3706710000000015
20
-68.8440300000000036
11
101.4517769999999928
21
-68.8982230000000015
0
LINE
8
BLACK
6
CONTINUOUS
10
101.4517769999999928
20
-68.8982230000000015
11
101.5059699999999907
21
-68.9793289999999928
0
LINE
8
BLACK
6
CONTINUOUS
10
101.5059699999999907
20
-68.9793289999999928
11
101.5249999999999915
21
-69.0750000000000028
0
LINE
8
BLACK
6
CONTINUOUS
10
101.5249999999999915
20
-69.0750000000000028
11
101.5249999999999915
21
-70.3250000000000028
0
LINE
8
BLACK
6
CONTINUOUS
10
101.5249999999999915
20
-70.3250000000000028
11
101.5059699999999907
21
-70.4206709999999987
0
LINE
8
BLACK
6
CONTINUOUS
10
101.5059699999999907
20
-70.4206709999999987
11
101.4517769999999928
21
-70.5017769999999899
0
LINE
8
BLACK
6
CONTINUOUS
10
101.4517769999999928
20
-70.5017769999999899
11
101.3706710000000015
21
-70.5559700000000021
0
LINE
8
BLACK
6
CONTINUOUS
10
101.3706710000000015
20
-70.5559700000000021
11
101.2749999999999915
21
-70.5750000000000028
0
LINE
8
BLACK
6
CONTINUOUS
10
101.2749999999999915
20
-70.5750000000000028
11
100.6499999999999915
21
-70.5750000000000028
0
LINE
8
BLACK
6
CONTINUOUS
10
100.6499999999999915
20
-70.5750000000000028
11
100.5543289999999956
21
-70.5559700000000021
0
LINE
8
BLACK
6
CONTINUOUS
10
100.5543289999999956
20
-70.5559700000000021
11
100.4732229999999902
21
-70.5017769999999899
0
LINE
8
BLACK
6
CONTINUOUS
10
100.4732229999999902
20
-70.5017769999999899
11
100.4190299999999922
21
-70.4206709999999987
0
LINE
8
BLACK
6
CONTINUOUS
10
100.4190299999999922
20
-70.4206709999999987
11
100.3999999999999915
21
-70.3250000000000028
0
LINE
8
BLACK
6
CONTINUOUS
10
100.3999999999999915
20
-70.3250000000000028
11
100.3999999999999915
21
-69.0750000000000028
0
LINE
8
BLACK
6
CONTINUOUS
10
100.3999999999999915
20
-69.0750000000000028
11
100.4190299999999922
21
-68.9793289999999928
0
LINE
8
BLACK
6
CONTINUOUS
10
100.4190299999999922
20
-68.9793289999999928
11
100.4732229999999902
21
-68.8982230000000015
0
LINE
8
BLACK
6
CONTINUOUS
10
100.4732229999999902
20
-68.8982230000000015
11
100.5543289999999956
21
-68.8440300000000036
0
LINE
8
BLACK
6
CONTINUOUS
10
100.5543289999999956
20
-68.8440300000000036
11
100.6499999999999915
21
-68.8250000000000028
0
LINE
8
BLACK
6
CONTINUOUS
10
100.6499999999999915
20
-68.8250000000000028
11
101.2749999999999915
21
-68.8250000000000028
0
LINE
8
BLACK
6
CONTINUOUS
10
101.2749999999999915
20
-68.8250000000000028
11
101.3706710000000015
21
-68.8440300000000036
0
LINE
8
BLACK
6
CONTINUOUS
10
103.5999999999999943
20
-65.7666669999999982
11
101.3999999999999915
21
-65.7666669999999982
0
LINE
8
BLACK
6
CONTINUOUS
10
101.3999999999999915
20
-65.7666669999999982
11
101.3999999999999915
21
-63.5666669999999954
0
LINE
8
BLACK
6
CONTINUOUS
10
101.3999999999999915
20
-63.5666669999999954
11
103.5999999999999943
21
-63.5666669999999954
0
LINE
8
BLACK
6
CONTINUOUS
10
103.5999999999999943
20
-63.5666669999999954
11
103.5999999999999943
21
-65.7666669999999982
0
LINE
8
BLACK
6
CONTINUOUS
10
105.3999999999999915
20
-65.7666669999999982
11
104.1499999999999915
21
-65.7666669999999982
0
LINE
8
BLACK
6
CONTINUOUS
10
104.1499999999999915
20
-65.7666669999999982
11
104.1499999999999915
21
-63.5666669999999954
0
LINE
8
BLACK
6
CONTINUOUS
10
104.1499999999999915
20
-63.5666669999999954
11
105.3999999999999915
21
-63.5666669999999954
0
LINE
8
BLACK
6
CONTINUOUS
10
105.3999999999999915
20
-63.5666669999999954
11
105.3999999999999915
21
-65.7666669999999982
0
LINE
8
BLACK
6
CONTINUOUS
10
161.4499999999999886
20
-59.0999999999999943
11
159.25
21
-59.0999999999999943
0
LINE
8
BLACK
6
CONTINUOUS
10
159.25
20
-59.0999999999999943
11
159.25
21
-56.8999999999999986
0
LINE
8
BLACK
6
CONTINUOUS
10
159.25
20
-56.8999999999999986
11
161.4499999999999886
21
-56.8999999999999986
0
LINE
8
BLACK
6
CONTINUOUS
10
161.4499999999999886
20
-56.8999999999999986
11
161.4499999999999886
21
-59.0999999999999943
0
LINE
8
BLACK
6
CONTINUOUS
10
163.25
20
-59.0999999999999943
11
162.
21
-59.0999999999999943
0
LINE
8
BLACK
6
CONTINUOUS
10
162.
20
-59.0999999999999943
11
162.
21
-56.8999999999999986
0
LINE
8
BLACK
6
CONTINUOUS
10
162.
20
-56.8999999999999986
11
163.25
21
-56.8999999999999986
0
LINE
8
BLACK
6
CONTINUOUS
10
163.25
20
-56.8999999999999986
11
163.25
21
-59.0999999999999943
0
LINE
8
BLACK
6
CONTINUOUS
10
178.9499999999999886
20
-59.0999999999999943
11
176.75
21
-59.0999999999999943
0
LINE
8
BLACK
6
CONTINUOUS
10
176.75
20
-59.0999999999999943
11
176.75
21
-56.8999999999999986
0
LINE
8
BLACK
6
CONTINUOUS
10
176.75
20
-56.8999999999999986
11
178.9499999999999886
21
-56.8999999999999986
0
LINE
8
BLACK
6
CONTINUOUS
10
178.9499999999999886
20
-56.8999999999999986
11
178.9499999999999886
21
-59.0999999999999943
0
LINE
8
BLACK
6
CONTINUOUS
10
180.75
20
-59.0999999999999943
11
179.5
21
-59.0999999999999943
0
LINE
8
BLACK
6
CONTINUOUS
10
179.5
20
-59.0999999999999943
11
179.5
21
-56.8999999999999986
0
LINE
8
BLACK
6
CONTINUOUS
10
179.5
20
-56.8999999999999986
11
180.75
21
-56.8999999999999986
0
LINE
8
BLACK
6
CONTINUOUS
10
180.75
20
-56.8999999999999986
11
180.75
21
-59.0999999999999943
0
LINE
8
BLACK
6
CONTINUOUS
10
98.4456709999999902
20
-57.2440299999999951
11
98.5267769999999956
21
-57.2982230000000001
0
LINE
8
BLACK
6
CONTINUOUS
10
98.5267769999999956
20
-57.2982230000000001
11
98.5809699999999935
21
-57.3793289999999985
0
LINE
8
BLACK
6
CONTINUOUS
10
98.5809699999999935
20
-57.3793289999999985
11
98.5999999999999943
21
-57.4749999999999943
0
LINE
8
BLACK
6
CONTINUOUS
10
98.5999999999999943
20
-57.4749999999999943
11
98.5999999999999943
21
-58.7249999999999943
0
LINE
8
BLACK
6
CONTINUOUS
10
98.5999999999999943
20
-58.7249999999999943
11
98.5809699999999935
21
-58.8206709999999973
0
LINE
8
BLACK
6
CONTINUOUS
10
98.5809699999999935
20
-58.8206709999999973
11
98.5267769999999956
21
-58.9017769999999956
0
LINE
8
BLACK
6
CONTINUOUS
10
98.5267769999999956
20
-58.9017769999999956
11
98.4456709999999902
21
-58.9559700000000007
0
LINE
8
BLACK
6
CONTINUOUS
10
98.4456709999999902
20
-58.9559700000000007
11
98.3499999999999943
21
-58.9749999999999943
0
LINE
8
BLACK
6
CONTINUOUS
10
98.3499999999999943
20
-58.9749999999999943
11
97.7249999999999943
21
-58.9749999999999943
0
LINE
8
BLACK
6
CONTINUOUS
10
97.7249999999999943
20
-58.9749999999999943
11
97.6293289999999985
21
-58.9559700000000007
0
LINE
8
BLACK
6
CONTINUOUS
10
97.6293289999999985
20
-58.9559700000000007
11
97.548222999999993
21
-58.9017769999999956
0
LINE
8
BLACK
6
CONTINUOUS
10
97.548222999999993
20
-58.9017769999999956
11
97.4940299999999951
21
-58.8206709999999973
0
LINE
8
BLACK
6
CONTINUOUS
10
97.4940299999999951
20
-58.8206709999999973
11
97.4749999999999943
21
-58.7249999999999943
0
LINE
8
BLACK
6
CONTINUOUS
10
97.4749999999999943
20
-58.7249999999999943
11
97.4749999999999943
21
-57.4749999999999943
0
LINE
8
BLACK
6
CONTINUOUS
10
97.4749999999999943
20
-57.4749999999999943
11
97.4940299999999951
21
-57.3793289999999985
0
LINE
8
BLACK
6
CONTINUOUS
10
97.4940299999999951
20
-57.3793289999999985
11
97.548222999999993
21
-57.2982230000000001
0
LINE
8
BLACK
6
CONTINUOUS
10
97.548222999999993
20
-57.2982230000000001
11
97.6293289999999985
21
-57.2440299999999951
0
LINE
8
BLACK
6
CONTINUOUS
10
97.6293289999999985
20
-57.2440299999999951
11
97.7249999999999943
21
-57.2249999999999943
0
LINE
8
BLACK
6
CONTINUOUS
10
97.7249999999999943
20
-57.2249999999999943
11
98.3499999999999943
21
-57.2249999999999943
0
LINE
8
BLACK
6
CONTINUOUS
10
98.3499999999999943
20
-57.2249999999999943
11
98.4456709999999902
21
-57.2440299999999951
0
LINE
8
BLACK
6
CONTINUOUS
10
101.3706710000000015
20
-57.2440299999999951
11
101.4517769999999928
21
-57.2982230000000001
0
LINE
8
BLACK
6
CONTINUOUS
10
101.4517769999999928
20
-57.2982230000000001
11
101.5059699999999907
21
-57.3793289999999985
0
LINE
8
BLACK
6
CONTINUOUS
10
101.5059699999999907
20
-57.3793289999999985
11
101.5249999999999915
21
-57.4749999999999943
0
LINE
8
BLACK
6
CONTINUOUS
10
101.5249999999999915
20
-57.4749999999999943
11
101.5249999999999915
21
-58.7249999999999943
0
LINE
8
BLACK
6
CONTINUOUS
10
101.5249999999999915
20
-58.7249999999999943
11
101.5059699999999907
21
-58.8206709999999973
0
LINE
8
BLACK
6
CONTINUOUS
10
101.5059699999999907
20
-58.8206709999999973
11
101.4517769999999928
21
-58.9017769999999956
0
LINE
8
BLACK
6
CONTINUOUS
10
101.4517769999999928
20
-58.9017769999999956
11
101.3706710000000015
21
-58.9559700000000007
0
LINE
8
BLACK
6
CONTINUOUS
10
101.3706710000000015
20
-58.9559700000000007
11
101.2749999999999915
21
-58.9749999999999943
0
LINE
8
BLACK
6
CONTINUOUS
10
101.2749999999999915
20
-58.9749999999999943
11
100.6499999999999915
21
-58.9749999999999943
0
LINE
8
BLACK
6
CONTINUOUS
10
100.6499999999999915
20
-58.9749999999999943
11
100.5543289999999956
21
-58.9559700000000007
0
LINE
8
BLACK
6
CONTINUOUS
10
100.5543289999999956
20
-58.9559700000000007
11
100.4732229999999902
21
-58.9017769999999956
0
LINE
8
BLACK
6
CONTINUOUS
10
100.4732229999999902
20
-58.9017769999999956
11
100.4190299999999922
21
-58.8206709999999973
0
LINE
8
BLACK
6
CONTINUOUS
10
100.4190299999999922
20
-58.8206709999999973
11
100.3999999999999915
21
-58.7249999999999943
0
LINE
8
BLACK
6
CONTINUOUS
10
100.3999999999999915
20
-58.7249999999999943
11
100.3999999999999915
21
-57.4749999999999943
0
LINE
8
BLACK
6
CONTINUOUS
10
100.3999999999999915
20
-57.4749999999999943
11
100.4190299999999922
21
-57.3793289999999985
0
LINE
8
BLACK
6
CONTINUOUS
10
100.4190299999999922
20
-57.3793289999999985
11
100.4732229999999902
21
-57.2982230000000001
0
LINE
8
BLACK
6
CONTINUOUS
10
100.4732229999999902
20
-57.2982230000000001
11
100.5543289999999956
21
-57.2440299999999951
0
LINE
8
BLACK
6
CONTINUOUS
10
100.5543289999999956
20
-57.2440299999999951
11
100.6499999999999915
21
-57.2249999999999943
0
LINE
8
BLACK
6
CONTINUOUS
10
100.6499999999999915
20
-57.2249999999999943
11
101.2749999999999915
21
-57.2249999999999943
0
LINE
8
BLACK
6
CONTINUOUS
10
101.2749999999999915
20
-57.2249999999999943
11
101.3706710000000015
21
-57.2440299999999951
0
LINE
8
BLACK
6
CONTINUOUS
10
119.9499999999999886
20
-58.8499999999999943
11
117.75
21
-58.8499999999999943
0
LINE
8
BLACK
6
CONTINUOUS
10
117.75
20
-58.8499999999999943
11
117.75
21
-56.6499999999999986
0
LINE
8
BLACK
6
CONTINUOUS
10
117.75
20
-56.6499999999999986
11
119.9499999999999886
21
-56.6499999999999986
0
LINE
8
BLACK
6
CONTINUOUS
10
119.9499999999999886
20
-56.6499999999999986
11
119.9499999999999886
21
-58.8499999999999943
0
LINE
8
BLACK
6
CONTINUOUS
10
121.75
20
-58.8499999999999943
11
120.5
21
-58.8499999999999943
0
LINE
8
BLACK
6
CONTINUOUS
10
120.5
20
-58.8499999999999943
11
120.5
21
-56.6499999999999986
0
LINE
8
BLACK
6
CONTINUOUS
10
120.5
20
-56.6499999999999986
11
121.75
21
-56.6499999999999986
0
LINE
8
BLACK
6
CONTINUOUS
10
121.75
20
-56.6499999999999986
11
121.75
21
-58.8499999999999943
0
LINE
8
BLACK
6
CONTINUOUS
10
136.4499999999999886
20
-58.8499999999999943
11
134.25
21
-58.8499999999999943
0
LINE
8
BLACK
6
CONTINUOUS
10
134.25
20
-58.8499999999999943
11
134.25
21
-56.6499999999999986
0
LINE
8
BLACK
6
CONTINUOUS
10
134.25
20
-56.6499999999999986
11
136.4499999999999886
21
-56.6499999999999986
0
LINE
8
BLACK
6
CONTINUOUS
10
136.4499999999999886
20
-56.6499999999999986
11
136.4499999999999886
21
-58.8499999999999943
0
LINE
8
BLACK
6
CONTINUOUS
10
138.25
20
-58.8499999999999943
11
137.
21
-58.8499999999999943
0
LINE
8
BLACK
6
CONTINUOUS
10
137.
20
-58.8499999999999943
11
137.
21
-56.6499999999999986
0
LINE
8
BLACK
6
CONTINUOUS
10
137.
20
-56.6499999999999986
11
138.25
21
-56.6499999999999986
0
LINE
8
BLACK
6
CONTINUOUS
10
138.25
20
-56.6499999999999986
11
138.25
21
-58.8499999999999943
0
LINE
8
BLACK
6
CONTINUOUS
10
103.5999999999999943
20
-50.9333329999999975
11
101.3999999999999915
21
-50.9333329999999975
0
LINE
8
BLACK
6
CONTINUOUS
10
101.3999999999999915
20
-50.9333329999999975
11
101.3999999999999915
21
-48.7333329999999947
0
LINE
8
BLACK
6
CONTINUOUS
10
101.3999999999999915
20
-48.7333329999999947
11
103.5999999999999943
21
-48.7333329999999947
0
LINE
8
BLACK
6
CONTINUOUS
10
103.5999999999999943
20
-48.7333329999999947
11
103.5999999999999943
21
-50.9333329999999975
0
LINE
8
BLACK
6
CONTINUOUS
10
105.3999999999999915
20
-50.9333329999999975
11
104.1499999999999915
21
-50.9333329999999975
0
LINE
8
BLACK
6
CONTINUOUS
10
104.1499999999999915
20
-50.9333329999999975
11
104.1499999999999915
21
-48.7333329999999947
0
LINE
8
BLACK
6
CONTINUOUS
10
104.1499999999999915
20
-48.7333329999999947
11
105.3999999999999915
21
-48.7333329999999947
0
LINE
8
BLACK
6
CONTINUOUS
10
105.3999999999999915
20
-48.7333329999999947
11
105.3999999999999915
21
-50.9333329999999975
0
LINE
8
BLACK
6
CONTINUOUS
10
113.1999999999999886
20
-49.0999999999999943
11
111.
21
-49.0999999999999943
0
LINE
8
BLACK
6
CONTINUOUS
10
111.
20
-49.0999999999999943
11
111.
21
-46.8999999999999986
0
LINE
8
BLACK
6
CONTINUOUS
10
111.
20
-46.8999999999999986
11
113.1999999999999886
21
-46.8999999999999986
0
LINE
8
BLACK
6
CONTINUOUS
10
113.1999999999999886
20
-46.8999999999999986
11
113.1999999999999886
21
-49.0999999999999943
0
LINE
8
BLACK
6
CONTINUOUS
10
115.
20
-49.0999999999999943
11
113.75
21
-49.0999999999999943
0
LINE
8
BLACK
6
CONTINUOUS
10
113.75
20
-49.0999999999999943
11
113.75
21
-46.8999999999999986
0
LINE
8
BLACK
6
CONTINUOUS
10
113.75
20
-46.8999999999999986
11
115.
21
-46.8999999999999986
0
LINE
8
BLACK
6
CONTINUOUS
10
115.
20
-46.8999999999999986
11
115.
21
-49.0999999999999943
0
LINE
8
BLACK
6
CONTINUOUS
10
128.1999999999999886
20
-49.0999999999999943
11
126.
21
-49.0999999999999943
0
LINE
8
BLACK
6
CONTINUOUS
10
126.
20
-49.0999999999999943
11
126.
21
-46.8999999999999986
0
LINE
8
BLACK
6
CONTINUOUS
10
126.
20
-46.8999999999999986
11
128.1999999999999886
21
-46.8999999999999986
0
LINE
8
BLACK
6
CONTINUOUS
10
128.1999999999999886
20
-46.8999999999999986
11
128.1999999999999886
21
-49.0999999999999943
0
LINE
8
BLACK
6
CONTINUOUS
10
130.
20
-49.0999999999999943
11
128.75
21
-49.0999999999999943
0
LINE
8
BLACK
6
CONTINUOUS
10
128.75
20
-49.0999999999999943
11
128.75
21
-46.8999999999999986
0
LINE
8
BLACK
6
CONTINUOUS
10
128.75
20
-46.8999999999999986
11
130.
21
-46.8999999999999986
0
LINE
8
BLACK
6
CONTINUOUS
10
130.
20
-46.8999999999999986
11
130.
21
-49.0999999999999943
0
LINE
8
BLACK
6
CONTINUOUS
10
141.8249999999999886
20
-49.0999999999999943
11
139.625
21
-49.0999999999999943
0
LINE
8
BLACK
6
CONTINUOUS
10
139.625
20
-49.0999999999999943
11
139.625
21
-46.8999999999999986
0
LINE
8
BLACK
6
CONTINUOUS
10
139.625
20
-46.8999999999999986
11
141.8249999999999886
21
-46.8999999999999986
0
LINE
8
BLACK
6
CONTINUOUS
10
141.8249999999999886
20
-46.8999999999999986
11
141.8249999999999886
21
-49.0999999999999943
0
LINE
8
BLACK
6
CONTINUOUS
10
143.625
20
-49.0999999999999943
11
142.375
21
-49.0999999999999943
0
LINE
8
BLACK
6
CONTINUOUS
10
142.375
20
-49.0999999999999943
11
142.375
21
-46.8999999999999986
0
LINE
8
BLACK
6
CONTINUOUS
10
142.375
20
-46.8999999999999986
11
143.625
21
-46.8999999999999986
0
LINE
8
BLACK
6
CONTINUOUS
10
143.625
20
-46.8999999999999986
11
143.625
21
-49.0999999999999943
0
LINE
8
BLACK
6
CONTINUOUS
10
154.6999999999999886
20
-49.0999999999999943
11
152.5
21
-49.0999999999999943
0
LINE
8
BLACK
6
CONTINUOUS
10
152.5
20
-49.0999999999999943
11
152.5
21
-46.8999999999999986
0
LINE
8
BLACK
6
CONTINUOUS
10
152.5
20
-46.8999999999999986
11
154.6999999999999886
21
-46.8999999999999986
0
LINE
8
BLACK
6
CONTINUOUS
10
154.6999999999999886
20
-46.8999999999999986
11
154.6999999999999886
21
-49.0999999999999943
0
LINE
8
BLACK
6
CONTINUOUS
10
156.5
20
-49.0999999999999943
11
155.25
21
-49.0999999999999943
0
LINE
8
BLACK
6
CONTINUOUS
10
155.25
20
-49.0999999999999943
11
155.25
21
-46.8999999999999986
0
LINE
8
BLACK
6
CONTINUOUS
10
155.25
20
-46.8999999999999986
11
156.5
21
-46.8999999999999986
0
LINE
8
BLACK
6
CONTINUOUS
10
156.5
20
-46.8999999999999986
11
156.5
21
-49.0999999999999943
0
LINE
8
BLACK
6
CONTINUOUS
10
168.4749999999999943
20
-49.0999999999999943
11
166.2750000000000057
21
-49.0999999999999943
0
LINE
8
BLACK
6
CONTINUOUS
10
166.2750000000000057
20
-49.0999999999999943
11
166.2750000000000057
21
-46.8999999999999986
0
LINE
8
BLACK
6
CONTINUOUS
10
166.2750000000000057
20
-46.8999999999999986
11
168.4749999999999943
21
-46.8999999999999986
0
LINE
8
BLACK
6
CONTINUOUS
10
168.4749999999999943
20
-46.8999999999999986
11
168.4749999999999943
21
-49.0999999999999943
0
LINE
8
BLACK
6
CONTINUOUS
10
170.2750000000000057
20
-49.0999999999999943
11
169.0250000000000057
21
-49.0999999999999943
0
LINE
8
BLACK
6
CONTINUOUS
10
169.0250000000000057
20
-49.0999999999999943
11
169.0250000000000057
21
-46.8999999999999986
0
LINE
8
BLACK
6
CONTINUOUS
10
169.0250000000000057
20
-46.8999999999999986
11
170.2750000000000057
21
-46.8999999999999986
0
LINE
8
BLACK
6
CONTINUOUS
10
170.2750000000000057
20
-46.8999999999999986
11
170.2750000000000057
21
-49.0999999999999943
0
LINE
8
BLACK
6
CONTINUOUS
10
183.6999999999999886
20
-49.0999999999999943
11
181.5
21
-49.0999999999999943
0
LINE
8
BLACK
6
CONTINUOUS
10
181.5
20
-49.0999999999999943
11
181.5
21
-46.8999999999999986
0
LINE
8
BLACK
6
CONTINUOUS
10
181.5
20
-46.8999999999999986
11
183.6999999999999886
21
-46.8999999999999986
0
LINE
8
BLACK
6
CONTINUOUS
10
183.6999999999999886
20
-46.8999999999999986
11
183.6999999999999886
21
-49.0999999999999943
0
LINE
8
BLACK
6
CONTINUOUS
10
185.5
20
-49.0999999999999943
11
184.25
21
-49.0999999999999943
0
LINE
8
BLACK
6
CONTINUOUS
10
184.25
20
-49.0999999999999943
11
184.25
21
-46.8999999999999986
0
LINE
8
BLACK
6
CONTINUOUS
10
184.25
20
-46.8999999999999986
11
185.5
21
-46.8999999999999986
0
LINE
8
BLACK
6
CONTINUOUS
10
185.5
20
-46.8999999999999986
11
185.5
21
-49.0999999999999943
0
LINE
8
BLACK
6
CONTINUOUS
10
98.4456709999999902
20
-45.6440300000000008
11
98.5267769999999956
21
-45.6982229999999987
0
LINE
8
BLACK
6
CONTINUOUS
10
98.5267769999999956
20
-45.6982229999999987
11
98.5809699999999935
21
-45.7793289999999971
0
LINE
8
BLACK
6
CONTINUOUS
10
98.5809699999999935
20
-45.7793289999999971
11
98.5999999999999943
21
-45.875
0
LINE
8
BLACK
6
CONTINUOUS
10
98.5999999999999943
20
-45.875
11
98.5999999999999943
21
-47.125
0
LINE
8
BLACK
6
CONTINUOUS
10
98.5999999999999943
20
-47.125
11
98.5809699999999935
21
-47.2206709999999958
0
LINE
8
BLACK
6
CONTINUOUS
10
98.5809699999999935
20
-47.2206709999999958
11
98.5267769999999956
21
-47.3017770000000013
0
LINE
8
BLACK
6
CONTINUOUS
10
98.5267769999999956
20
-47.3017770000000013
11
98.4456709999999902
21
-47.3559699999999992
0
LINE
8
BLACK
6
CONTINUOUS
10
98.4456709999999902
20
-47.3559699999999992
11
98.3499999999999943
21
-47.375
0
LINE
8
BLACK
6
CONTINUOUS
10
98.3499999999999943
20
-47.375
11
97.7249999999999943
21
-47.375
0
LINE
8
BLACK
6
CONTINUOUS
10
97.7249999999999943
20
-47.375
11
97.6293289999999985
21
-47.3559699999999992
0
LINE
8
BLACK
6
CONTINUOUS
10
97.6293289999999985
20
-47.3559699999999992
11
97.548222999999993
21
-47.3017770000000013
0
LINE
8
BLACK
6
CONTINUOUS
10
97.548222999999993
20
-47.3017770000000013
11
97.4940299999999951
21
-47.2206709999999958
0
LINE
8
BLACK
6
CONTINUOUS
10
97.4940299999999951
20
-47.2206709999999958
11
97.4749999999999943
21
-47.125
0
LINE
8
BLACK
6
CONTINUOUS
10
97.4749999999999943
20
-47.125
11
97.4749999999999943
21
-45.875
0
LINE
8
BLACK
6
CONTINUOUS
10
97.4749999999999943
20
-45.875
11
97.4940299999999951
21
-45.7793289999999971
0
LINE
8
BLACK
6
CONTINUOUS
10
97.4940299999999951
20
-45.7793289999999971
11
97.548222999999993
21
-45.6982229999999987
0
LINE
8
BLACK
6
CONTINUOUS
10
97.548222999999993
20
-45.6982229999999987
11
97.6293289999999985
21
-45.6440300000000008
0
LINE
8
BLACK
6
CONTINUOUS
10
97.6293289999999985
20
-45.6440300000000008
11
97.7249999999999943
21
-45.625
0
LINE
8
BLACK
6
CONTINUOUS
10
97.7249999999999943
20
-45.625
11
98.3499999999999943
21
-45.625
0
LINE
8
BLACK
6
CONTINUOUS
10
98.3499999999999943
20
-45.625
11
98.4456709999999902
21
-45.6440300000000008
0
LINE
8
BLACK
6
CONTINUOUS
10
101.3706710000000015
20
-45.6440300000000008
11
101.4517769999999928
21
-45.6982229999999987
0
LINE
8
BLACK
6
CONTINUOUS
10
101.4517769999999928
20
-45.6982229999999987
11
101.5059699999999907
21
-45.7793289999999971
0
LINE
8
BLACK
6
CONTINUOUS
10
101.5059699999999907
20
-45.7793289999999971
11
101.5249999999999915
21
-45.875
0
LINE
8
BLACK
6
CONTINUOUS
10
101.5249999999999915
20
-45.875
11
101.5249999999999915
21
-47.125
0
LINE
8
BLACK
6
CONTINUOUS
10
101.5249999999999915
20
-47.125
11
101.5059699999999907
21
-47.2206709999999958
0
LINE
8
BLACK
6
CONTINUOUS
10
101.5059699999999907
20
-47.2206709999999958
11
101.4517769999999928
21
-47.3017770000000013
0
LINE
8
BLACK
6
CONTINUOUS
10
101.4517769999999928
20
-47.3017770000000013
11
101.3706710000000015
21
-47.3559699999999992
0
LINE
8
BLACK
6
CONTINUOUS
10
101.3706710000000015
20
-47.3559699999999992
11
101.2749999999999915
21
-47.375
0
LINE
8
BLACK
6
CONTINUOUS
10
101.2749999999999915
20
-47.375
11
100.6499999999999915
21
-47.375
0
LINE
8
BLACK
6
CONTINUOUS
10
100.6499999999999915
20
-47.375
11
100.5543289999999956
21
-47.3559699999999992
0
LINE
8
BLACK
6
CONTINUOUS
10
100.5543289999999956
20
-47.3559699999999992
11
100.4732229999999902
21
-47.3017770000000013
0
LINE
8
BLACK
6
CONTINUOUS
10
100.4732229999999902
20
-47.3017770000000013
11
100.4190299999999922
21
-47.2206709999999958
0
LINE
8
BLACK
6
CONTINUOUS
10
100.4190299999999922
20
-47.2206709999999958
11
100.3999999999999915
21
-47.125
0
LINE
8
BLACK
6
CONTINUOUS
10
100.3999999999999915
20
-47.125
11
100.3999999999999915
21
-45.875
0
LINE
8
BLACK
6
CONTINUOUS
10
100.3999999999999915
20
-45.875
11
100.4190299999999922
21
-45.7793289999999971
0
LINE
8
BLACK
6
CONTINUOUS
10
100.4190299999999922
20
-45.7793289999999971
11
100.4732229999999902
21
-45.6982229999999987
0
LINE
8
BLACK
6
CONTINUOUS
10
100.4732229999999902
20
-45.6982229999999987
11
100.5543289999999956
21
-45.6440300000000008
0
LINE
8
BLACK
6
CONTINUOUS
10
100.5543289999999956
20
-45.6440300000000008
11
100.6499999999999915
21
-45.625
0
LINE
8
BLACK
6
CONTINUOUS
10
100.6499999999999915
20
-45.625
11
101.2749999999999915
21
-45.625
0
LINE
8
BLACK
6
CONTINUOUS
10
101.2749999999999915
20
-45.625
11
101.3706710000000015
21
-45.6440300000000008
0
LINE
8
BLACK
6
CONTINUOUS
10
103.5999999999999943
20
-36.1000000000000014
11
101.3999999999999915
21
-36.1000000000000014
0
LINE
8
BLACK
6
CONTINUOUS
10
101.3999999999999915
20
-36.1000000000000014
11
101.3999999999999915
21
-33.8999999999999986
0
LINE
8
BLACK
6
CONTINUOUS
10
101.3999999999999915
20
-33.8999999999999986
11
103.5999999999999943
21
-33.8999999999999986
0
LINE
8
BLACK
6
CONTINUOUS
10
103.5999999999999943
20
-33.8999999999999986
11
103.5999999999999943
21
-36.1000000000000014
0
LINE
8
BLACK
6
CONTINUOUS
10
105.3999999999999915
20
-36.1000000000000014
11
104.1499999999999915
21
-36.1000000000000014
0
LINE
8
BLACK
6
CONTINUOUS
10
104.1499999999999915
20
-36.1000000000000014
11
104.1499999999999915
21
-33.8999999999999986
0
LINE
8
BLACK
6
CONTINUOUS
10
104.1499999999999915
20
-33.8999999999999986
11
105.3999999999999915
21
-33.8999999999999986
0
LINE
8
BLACK
6
CONTINUOUS
10
105.3999999999999915
20
-33.8999999999999986
11
105.3999999999999915
21
-36.1000000000000014
0
LINE
8
BLACK
6
CONTINUOUS
10
114.0999999999999943
20
-36.1000000000000014
11
111.8999999999999915
21
-36.1000000000000014
0
LINE
8
BLACK
6
CONTINUOUS
10
111.8999999999999915
20
-36.1000000000000014
11
111.8999999999999915
21
-33.8999999999999986
0
LINE
8
BLACK
6
CONTINUOUS
10
111.8999999999999915
20
-33.8999999999999986
11
114.0999999999999943
21
-33.8999999999999986
0
LINE
8
BLACK
6
CONTINUOUS
10
114.0999999999999943
20
-33.8999999999999986
11
114.0999999999999943
21
-36.1000000000000014
0
LINE
8
BLACK
6
CONTINUOUS
10
115.8999999999999915
20
-36.1000000000000014
11
114.6499999999999915
21
-36.1000000000000014
0
LINE
8
BLACK
6
CONTINUOUS
10
114.6499999999999915
20
-36.1000000000000014
11
114.6499999999999915
21
-33.8999999999999986
0
LINE
8
BLACK
6
CONTINUOUS
10
114.6499999999999915
20
-33.8999999999999986
11
115.8999999999999915
21
-33.8999999999999986
0
LINE
8
BLACK
6
CONTINUOUS
10
115.8999999999999915
20
-33.8999999999999986
11
115.8999999999999915
21
-36.1000000000000014
0
LINE
8
BLACK
6
CONTINUOUS
10
129.0999999999999943
20
-36.1000000000000014
11
126.8999999999999915
21
-36.1000000000000014
0
LINE
8
BLACK
6
CONTINUOUS
10
126.8999999999999915
20
-36.1000000000000014
11
126.8999999999999915
21
-33.8999999999999986
0
LINE
8
BLACK
6
CONTINUOUS
10
126.8999999999999915
20
-33.8999999999999986
11
129.0999999999999943
21
-33.8999999999999986
0
LINE
8
BLACK
6
CONTINUOUS
10
129.0999999999999943
20
-33.8999999999999986
11
129.0999999999999943
21
-36.1000000000000014
0
LINE
8
BLACK
6
CONTINUOUS
10
130.9000000000000057
20
-36.1000000000000014
11
129.6500000000000057
21
-36.1000000000000014
0
LINE
8
BLACK
6
CONTINUOUS
10
129.6500000000000057
20
-36.1000000000000014
11
129.6500000000000057
21
-33.8999999999999986
0
LINE
8
BLACK
6
CONTINUOUS
10
129.6500000000000057
20
-33.8999999999999986
11
130.9000000000000057
21
-33.8999999999999986
0
LINE
8
BLACK
6
CONTINUOUS
10
130.9000000000000057
20
-33.8999999999999986
11
130.9000000000000057
21
-36.1000000000000014
0
LINE
8
BLACK
6
CONTINUOUS
10
142.6999999999999886
20
-36.1000000000000014
11
140.5
21
-36.1000000000000014
0
LINE
8
BLACK
6
CONTINUOUS
10
140.5
20
-36.1000000000000014
11
140.5
21
-33.8999999999999986
0
LINE
8
BLACK
6
CONTINUOUS
10
140.5
20
-33.8999999999999986
11
142.6999999999999886
21
-33.8999999999999986
0
LINE
8
BLACK
6
CONTINUOUS
10
142.6999999999999886
20
-33.8999999999999986
11
142.6999999999999886
21
-36.1000000000000014
0
LINE
8
BLACK
6
CONTINUOUS
10
144.5
20
-36.1000000000000014
11
143.25
21
-36.1000000000000014
0
LINE
8
BLACK
6
CONTINUOUS
10
143.25
20
-36.1000000000000014
11
143.25
21
-33.8999999999999986
0
LINE
8
BLACK
6
CONTINUOUS
10
143.25
20
-33.8999999999999986
11
144.5
21
-33.8999999999999986
0
LINE
8
BLACK
6
CONTINUOUS
10
144.5
20
-33.8999999999999986
11
144.5
21
-36.1000000000000014
0
LINE
8
BLACK
6
CONTINUOUS
10
156.2999999999999829
20
-36.1000000000000014
11
154.0999999999999943
21
-36.1000000000000014
0
LINE
8
BLACK
6
CONTINUOUS
10
154.0999999999999943
20
-36.1000000000000014
11
154.0999999999999943
21
-33.8999999999999986
0
LINE
8
BLACK
6
CONTINUOUS
10
154.0999999999999943
20
-33.8999999999999986
11
156.2999999999999829
21
-33.8999999999999986
0
LINE
8
BLACK
6
CONTINUOUS
10
156.2999999999999829
20
-33.8999999999999986
11
156.2999999999999829
21
-36.1000000000000014
0
LINE
8
BLACK
6
CONTINUOUS
10
158.0999999999999943
20
-36.1000000000000014
11
156.8499999999999943
21
-36.1000000000000014
0
LINE
8
BLACK
6
CONTINUOUS
10
156.8499999999999943
20
-36.1000000000000014
11
156.8499999999999943
21
-33.8999999999999986
0
LINE
8
BLACK
6
CONTINUOUS
10
156.8499999999999943
20
-33.8999999999999986
11
158.0999999999999943
21
-33.8999999999999986
0
LINE
8
BLACK
6
CONTINUOUS
10
158.0999999999999943
20
-33.8999999999999986
11
158.0999999999999943
21
-36.1000000000000014
0
LINE
8
BLACK
6
CONTINUOUS
10
169.9000000000000057
20
-36.1000000000000014
11
167.6999999999999886
21
-36.1000000000000014
0
LINE
8
BLACK
6
CONTINUOUS
10
167.6999999999999886
20
-36.1000000000000014
11
167.6999999999999886
21
-33.8999999999999986
0
LINE
8
BLACK
6
CONTINUOUS
10
167.6999999999999886
20
-33.8999999999999986
11
169.9000000000000057
21
-33.8999999999999986
0
LINE
8
BLACK
6
CONTINUOUS
10
169.9000000000000057
20
-33.8999999999999986
11
169.9000000000000057
21
-36.1000000000000014
0
LINE
8
BLACK
6
CONTINUOUS
10
171.6999999999999886
20
-36.1000000000000014
11
170.4499999999999886
21
-36.1000000000000014
0
LINE
8
BLACK
6
CONTINUOUS
10
170.4499999999999886
20
-36.1000000000000014
11
170.4499999999999886
21
-33.8999999999999986
0
LINE
8
BLACK
6
CONTINUOUS
10
170.4499999999999886
20
-33.8999999999999986
11
171.6999999999999886
21
-33.8999999999999986
0
LINE
8
BLACK
6
CONTINUOUS
10
171.6999999999999886
20
-33.8999999999999986
11
171.6999999999999886
21
-36.1000000000000014
0
LINE
8
BLACK
6
CONTINUOUS
10
183.5
20
-36.1000000000000014
11
181.2999999999999829
21
-36.1000000000000014
0
LINE
8
BLACK
6
CONTINUOUS
10
181.2999999999999829
20
-36.1000000000000014
11
181.2999999999999829
21
-33.8999999999999986
0
LINE
8
BLACK
6
CONTINUOUS
10
181.2999999999999829
20
-33.8999999999999986
11
183.5
21
-33.8999999999999986
0
LINE
8
BLACK
6
CONTINUOUS
10
183.5
20
-33.8999999999999986
11
183.5
21
-36.1000000000000014
0
LINE
8
BLACK
6
CONTINUOUS
10
185.2999999999999829
20
-36.1000000000000014
11
184.0499999999999829
21
-36.1000000000000014
0
LINE
8
BLACK
6
CONTINUOUS
10
184.0499999999999829
20
-36.1000000000000014
11
184.0499999999999829
21
-33.8999999999999986
0
LINE
8
BLACK
6
CONTINUOUS
10
184.0499999999999829
20
-33.8999999999999986
11
185.2999999999999829
21
-33.8999999999999986
0
LINE
8
BLACK
6
CONTINUOUS
10
185.2999999999999829
20
-33.8999999999999986
11
185.2999999999999829
21
-36.1000000000000014
  0
ENDSEC
  0
EOF
